<?xml version="1.0" encoding="utf-8"?>
<!-- Generator: Adobe Illustrator 16.0.0, SVG Export Plug-In . SVG Version: 6.00 Build 0)  -->
<!DOCTYPE svg PUBLIC "-//W3C//DTD SVG 1.1//EN" "http://www.w3.org/Graphics/SVG/1.1/DTD/svg11.dtd">
<svg version="1.1" xmlns="http://www.w3.org/2000/svg" xmlns:xlink="http://www.w3.org/1999/xlink" x="0px" y="0px" width="612px"
	 height="792px" viewBox="0 0 612 792" enable-background="new 0 0 612 792" xml:space="preserve">
<g id="Layer_2">
	
		<linearGradient id="SVGID_1_" gradientUnits="userSpaceOnUse" x1="-229.3276" y1="387" x2="584.9" y2="387" gradientTransform="matrix(0 -1 1 0 -81 693)">
		<stop  offset="0" style="stop-color:#087BBA"/>
		<stop  offset="0" style="stop-color:#087AB9"/>
		<stop  offset="1" style="stop-color:#1A3663"/>
	</linearGradient>
	<rect x="-123" y="-21" fill="url(#SVGID_1_)" width="858" height="816"/>
</g>
<g id="Layer_3">
</g>
<g id="Layer_1" display="none">
	<g display="inline">
		<g>
			<path fill="#E099AD" d="M321.842,330.738c-13.442,18.403-18.162,43.985-12.986,66.157c1.678,7.188,4.517,15.453,10.214,20.468
				c6.113,5.383,13.078,1.703,17.698-3.596c2.109-2.418-1.412-5.97-3.535-3.535c-2.056,2.357-4.436,4.939-7.798,4.874
				c-2.767-0.054-4.979-3.368-6.273-5.387c-3.354-5.228-5.086-11.617-6.228-17.664c-3.762-19.931,1.318-42.492,13.225-58.794
				C328.063,330.653,323.723,328.163,321.842,330.738L321.842,330.738z"/>
		</g>
	</g>
	<g display="inline">
		<g>
			<path fill="#E099AD" d="M345,402.5c3.225,0,3.225-5,0-5S341.775,402.5,345,402.5L345,402.5z"/>
		</g>
	</g>
	<g display="inline">
		<g>
			<path fill="#E099AD" d="M349,380.5c3.225,0,3.225-5,0-5S345.775,380.5,349,380.5L349,380.5z"/>
		</g>
	</g>
	<g display="inline">
		<g>
			<path fill="#E099AD" d="M346,359.5c3.225,0,3.225-5,0-5S342.775,359.5,346,359.5L346,359.5z"/>
		</g>
	</g>
	<g display="inline">
		<g>
			<path fill="#E099AD" d="M327.738,334.841c-6.312,4.344-11.553,9.586-15.896,15.897c1.522,0.642,3.046,1.284,4.569,1.926
				c1.486-5.976,4.785-16.632,12.972-14.642c7.011,1.705,11.102,10.542,12.973,16.699c6.358,20.924-2.275,45.257-18.123,59.511
				c-2.423,2.179,1.098,5.576,3.535,3.535c9.849-8.242,16.56-19.854,19.693-32.241c3.356-13.262,0.856-26.039-7.546-36.781
				c-5.327-6.811-13.986-10.127-19.926-2.205c-6.269,8.36-7.883,20.317-8.489,30.459c-0.192,3.222,4.809,3.204,5,0
				c0.502-8.403,1.924-17.307,5.82-24.862c1.279-2.481,3.569-5.922,6.813-5.439c4.791,0.713,8.418,6.979,10.709,10.563
				c11.576,18.109-1.001,44.744-15.609,56.971c1.179,1.179,2.356,2.356,3.535,3.535c18.147-16.322,27.838-46.136,17.613-69.345
				c-3.229-7.331-8.959-14.89-17.521-15.677c-9.814-0.903-14.41,11.109-16.271,18.59c-0.707,2.845,2.987,4.225,4.569,1.926
				c3.851-5.593,8.51-10.253,14.104-14.103C332.898,337.344,330.402,333.008,327.738,334.841L327.738,334.841z"/>
		</g>
	</g>
	<g display="inline">
		<g>
			<path fill="#E099AD" d="M314,412.5c3.225,0,3.225-5,0-5S310.775,412.5,314,412.5L314,412.5z"/>
		</g>
	</g>
	<g display="inline">
		<g>
			<path fill="#E099AD" d="M314,409.5c3.225,0,3.225-5,0-5S310.775,409.5,314,409.5L314,409.5z"/>
		</g>
	</g>
	<g display="inline">
		<g>
			<path fill="#E099AD" d="M313.589,411.665c2.423,6.657,3.469,19.849-3.851,24.177c-2.772,1.639-0.259,5.962,2.523,4.316
				c9.378-5.544,9.405-20.872,6.149-29.823C317.317,407.33,312.484,408.627,313.589,411.665L313.589,411.665z"/>
		</g>
	</g>
	<g display="inline">
		<g>
			<path fill="#E099AD" d="M318,426.5c3.225,0,3.225-5,0-5S314.775,426.5,318,426.5L318,426.5z"/>
		</g>
	</g>
	<g display="inline">
		<g>
			<path fill="#E099AD" d="M321.5,420c0-1,0-2,0-3c0-1.363-1.137-2.5-2.5-2.5s-2.5,1.137-2.5,2.5c0,1,0,2,0,3
				c0,1.363,1.137,2.5,2.5,2.5S321.5,421.363,321.5,420L321.5,420z"/>
		</g>
	</g>
	<g display="inline">
		<g>
			<path fill="#E099AD" d="M313.589,419.665c1.591,4.335,0.83,8.196-2.356,11.567c-2.213,2.341,1.316,5.883,3.535,3.535
				c4.333-4.583,5.842-10.438,3.644-16.433C317.311,415.334,312.477,416.631,313.589,419.665L313.589,419.665z"/>
		</g>
	</g>
	<g display="inline">
		<g>
			<path fill="#E099AD" d="M333.589,408.335c-2.021,8.175-4.206,17.598,1.253,24.927c1,1.343,3.44,1.883,4.316,0
				c0.996-2.14,0.605-3.652,0.253-5.927c-0.493-3.178-5.312-1.823-4.822,1.33c0.125,0.686,0.209,1.377,0.253,2.073
				c1.438,0,2.878,0,4.316,0c-4.638-6.229-2.459-14.155-0.747-21.073C339.185,406.534,334.363,405.207,333.589,408.335
				L333.589,408.335z"/>
		</g>
	</g>
	<g display="inline">
		<g>
			<path fill="#E099AD" d="M339.5,405c0.046-1.343,0.568-2.732,1.099-3.956c0.331-0.765,0.721-1.503,1.142-2.222
				c0.464-0.789,0.673-0.559-0.075-0.411c3.161-0.623,1.819-5.441-1.33-4.822c-1.834,0.361-2.93,2.635-3.68,4.128
				c-1.127,2.244-2.069,4.748-2.155,7.282C334.391,408.226,339.392,408.216,339.5,405L339.5,405z"/>
		</g>
	</g>
	<g display="inline">
		<g>
			<path fill="#E099AD" d="M342,437.5c3.225,0,3.225-5,0-5S338.775,437.5,342,437.5L342,437.5z"/>
		</g>
	</g>
	<g display="inline">
		<g>
			<path fill="#E099AD" d="M328,433.5c-9.577,0.199-18.144,3.396-26.262,8.342c-2.749,1.674-0.238,5.999,2.523,4.316
				c7.375-4.492,15.023-7.477,23.738-7.658C331.22,438.433,331.227,433.433,328,433.5L328,433.5z"/>
		</g>
	</g>
	<g display="inline">
		<g>
			<path fill="#E099AD" d="M293,449.5c3.224,0,3.224-5,0-5S289.776,449.5,293,449.5L293,449.5z"/>
		</g>
	</g>
	<g display="inline">
		<g>
			<path fill="#E099AD" d="M296.262,447.158c16.261-9.941,39.307-16.612,57.477-8c2.896,1.374,5.436-2.937,2.523-4.316
				c-19.894-9.431-44.572-2.977-62.523,8C290.993,444.52,293.503,448.846,296.262,447.158L296.262,447.158z"/>
		</g>
	</g>
	<g display="inline">
		<g>
			<path fill="#E099AD" d="M370.842,454.262c3.817,6.804,6.774,13.849,8.747,21.403c1.394-0.812,2.786-1.622,4.179-2.433
				c-7.639-8.238-14.137-17.585-22.699-24.932c-8.757-7.515-19.85-11.523-31.332-12.029c-19.16-0.845-43.587,9.759-48.147,30.063
				c-0.721,3.209,3.655,4.276,4.821,1.33c0.781-1.975,1.219-4.026,2-6c-1.607-0.443-3.214-0.887-4.821-1.33
				c-4.763,18.104-2.1,36.401,1.604,54.433c3.766,18.336,13.886,34.551,17.396,52.897c0.147,0.771,0.962,1.616,1.746,1.746
				c53.932,8.918,66.438-63.827,75.076-101.746c-1.638-0.222-3.274-0.443-4.911-0.665c-0.144,19.787-5.452,39.185-12.036,57.71
				c-6.63,18.659-15.138,36.662-24.622,54.028c-1.546,2.83,2.761,5.349,4.316,2.523c15.053-27.327,20.103-58.835,28.253-88.597
				c0.875-3.195-3.638-4.229-4.822-1.33C354.344,518.882,341.799,546.82,340.5,577c-0.132,3.065,3.902,3.063,4.911,0.665
				c4.136-9.844,4.992-20.609,7-31c0.619-3.208-3.649-4.305-4.822-1.33c-2.752,6.983-3.115,14.304-4.089,21.665c1.667,0,3.333,0,5,0
				c0-3.25,0-6.5,0-9.75c0-3.225-5-3.225-5,0c0,0.25,0,0.5,0,0.75c0,1.198,0.782,2.003,1.835,2.411
				c27.974,10.843,50.703,35.136,49.165,66.589c1.553-0.421,3.105-0.841,4.658-1.262c-19.46-30.159-43.527-86.224-89.07-66.454
				c-17.455,7.577-33.173,25.447-30.373,45.643c2.974,21.448,23.401,34.676,39.964,45.7c11.035,7.347,21.302,15.707,32.276,23.141
				c12.074,8.18,24.911,15.062,38.38,20.644c1.409,0.583,3.346-0.904,3.165-2.411c-4.195-35.023-6.139-70.878-2-106
				c-1.667,0-3.333,0-5,0c4.063,32.853,5.979,65.925,7,99c0.1,3.217,5.1,3.227,5,0c-1.021-33.075-2.938-66.147-7-99
				c-0.396-3.206-4.62-3.224-5,0c-4.139,35.122-2.195,70.977,2,106c1.055-0.804,2.109-1.607,3.165-2.411
				c-13.612-5.64-26.418-12.843-38.606-21.1c-10.502-7.114-20.29-15.153-30.856-22.18c-17.273-11.484-41.323-27.054-37.299-51.166
				c3.56-21.333,27.173-36.403,47.863-34.783c22.51,1.763,37.375,27.346,47.854,44.429c4.783,7.798,9.261,15.784,14.222,23.473
				c1.368,2.121,4.535,1.244,4.658-1.262c1.652-33.791-22.854-59.789-52.835-71.411c0.611,0.804,1.224,1.607,1.835,2.411
				c0-0.25,0-0.5,0-0.75c0-3.225-5-3.225-5,0c0,3.25,0,6.5,0,9.75c0,3.325,4.591,3.09,5,0c0.916-6.924,1.323-13.771,3.911-20.335
				c-1.607-0.443-3.215-0.887-4.822-1.33c-2.007,10.392-2.864,21.157-7,31c1.638,0.222,3.274,0.443,4.911,0.665
				c1.276-29.665,13.859-57.266,24.911-84.335c-1.607-0.443-3.215-0.887-4.822-1.33c-8.028,29.318-12.922,60.487-27.747,87.403
				c1.438,0.841,2.878,1.683,4.316,2.523c9.703-17.766,18.242-36.179,25.128-55.222c6.821-18.866,12.067-38.866,12.214-59.04
				c0.021-2.791-4.276-3.449-4.911-0.665c-4.892,21.479-9.25,43.315-18.464,63.465c-9.44,20.644-25.742,38.877-50.46,34.789
				c0.582,0.582,1.164,1.164,1.747,1.746c-3.183-16.633-12.29-31.322-16.324-47.709c-4.531-18.406-7.571-38.355-2.676-56.961
				c0.839-3.191-3.663-4.258-4.821-1.33c-0.781,1.975-1.219,4.026-2,6c1.607,0.443,3.214,0.887,4.821,1.33
				c4.295-19.129,27.932-27.501,45.52-26.269c22.862,1.602,34.209,20.174,48.302,35.371c1.746,1.883,4.793-0.08,4.179-2.433
				c-2.08-7.963-5.229-15.425-9.253-22.597C373.581,448.927,369.262,451.446,370.842,454.262L370.842,454.262z"/>
		</g>
	</g>
	<g display="inline">
		<g>
			<path fill="#E099AD" d="M323.232,343.232c-21.208,22.488-40.632,54.307-33.643,86.433c0.338,1.555,2.353,2.324,3.672,1.493
				c5.285-3.325,9.572-7.565,13.506-12.391c2.019-2.476-1.497-6.036-3.535-3.535c-3.66,4.488-7.564,8.507-12.494,11.609
				c1.224,0.498,2.448,0.995,3.672,1.493c-6.575-30.223,12.486-60.496,32.357-81.567
				C328.978,344.424,325.448,340.882,323.232,343.232L323.232,343.232z"/>
		</g>
	</g>
	<g display="inline">
		<g>
			<path fill="#E099AD" d="M320,405.5c3.225,0,3.225-5,0-5S316.775,405.5,320,405.5L320,405.5z"/>
		</g>
	</g>
	<g display="inline">
		<g>
			<path fill="#E099AD" d="M225,254.5c3.224,0,3.224-5,0-5S221.776,254.5,225,254.5L225,254.5z"/>
		</g>
	</g>
	<g display="inline">
		<g>
			<path fill="#E099AD" d="M241.262,333.159c39.752-17.229,85.376-30.717,129.073-24.748c3.152,0.431,4.512-4.387,1.33-4.821
				c-45.21-6.176-91.779,7.419-132.927,25.252C235.787,330.121,238.335,334.427,241.262,333.159L241.262,333.159z"/>
		</g>
	</g>
	<g display="inline">
		<g>
			<path fill="#E099AD" d="M413.738,321.159c40.27,28.904,75.023,68.881,74.758,121.058c-0.038,7.4-0.468,14.809-1.337,22.158
				c-0.845,7.135-1.987,15.402-6.171,21.449c-5.228,7.554-13.526-5.509-15.705-9.318c-2.857-4.997-5.117-10.324-7.717-15.456
				c-3.184-6.286-7.034-12.312-10.778-18.274c-13.581-21.629-30.094-40.361-51.208-54.871
				c-19.251-13.23-41.412-21.698-64.202-26.414c-27.836-5.76-56.26-5.004-84.211-0.52c-13.267,2.128-25.497,5.352-37.869,10.576
				C197.117,376.689,184.5,383.229,171,383.5c0.804,1.055,1.607,2.11,2.411,3.165c6.552-28.634,35.292-44.557,60.484-54.642
				c12.977-5.195,26.419-9.185,39.934-12.709c6.391-1.667,12.803-3.218,19.265-4.574c10.729-2.252,20.797-6.982,31.907-7.239
				c3.219-0.075,3.227-5.075,0-5c-10.92,0.253-21.06,4.354-31.521,7.017c-6.959,1.771-14.018,3.175-20.979,4.976
				c-14.742,3.812-29.329,8.307-43.412,14.124c-25.684,10.608-53.842,27.631-60.498,56.72c-0.354,1.549,0.727,3.198,2.411,3.165
				c12.747-0.256,24.62-5.677,36.134-10.628c6.421-2.761,12.844-5.492,19.515-7.601c7.63-2.412,15.846-3.517,23.731-4.782
				c31.168-5,62.937-4.238,93.455,4.128c25.421,6.969,48.721,19.867,68.123,37.693c20.973,19.27,34.804,44.136,47.635,69.167
				c3.282,6.404,8.735,15.852,16.908,16.563c5.716,0.497,9.211-4.478,11.197-9.158c5.726-13.49,5.883-29.988,5.792-44.437
				c-0.314-49.918-33.123-89.46-71.112-118.127c-2.018-1.521-4.063-3.004-6.116-4.477
				C413.637,314.957,411.145,319.297,413.738,321.159L413.738,321.159z"/>
		</g>
	</g>
	<g display="inline">
		<g>
			<path fill="#E099AD" d="M400.589,301.335c-25.947,63.656-59.794,123.658-87.747,186.403c-0.513,1.148-0.371,2.046,0.391,3.029
				c0.547,0.707,0.85,1.091,1.602,1.505c0.937,0.515,2.285,0.464,3.03-0.391c0.681-0.782,2.103-2.854,0.397-1.724
				c2.673-1.773,0.172-6.105-2.523-4.316c-0.962,0.638-1.816,2.972-1.41,2.504c1.01-0.13,2.02-0.261,3.03-0.391
				c-0.197-0.241-0.394-0.481-0.591-0.723c0.131,1.01,0.261,2.02,0.391,3.029c28.131-63.143,62.14-123.536,88.253-187.597
				C406.628,299.678,401.789,298.391,400.589,301.335L400.589,301.335z"/>
		</g>
	</g>
	<g display="inline">
		<g>
			<path fill="#E099AD" d="M426,317.5c3.225,0,3.225-5,0-5S422.775,317.5,426,317.5L426,317.5z"/>
		</g>
	</g>
	<g display="inline">
		<g>
			<path fill="#E099AD" d="M427.842,322.262c8.447,17.506,21.149,32.537,26.747,51.403c0.915,3.083,5.741,1.77,4.822-1.329
				c-5.73-19.312-18.609-34.685-27.253-52.597C430.758,316.835,426.447,319.372,427.842,322.262L427.842,322.262z"/>
		</g>
	</g>
	<g display="inline">
		<g>
			<path fill="#E099AD" d="M465,397.5c3.225,0,3.225-5,0-5S461.775,397.5,465,397.5L465,397.5z"/>
		</g>
	</g>
	<g display="inline">
		<g>
			<path fill="#E099AD" d="M468.589,418.665c1.889,8.708,3.269,17.496,6,26c0.982,3.057,5.811,1.749,4.822-1.33
				c-2.732-8.504-4.112-17.291-6-26C472.728,414.185,467.907,415.521,468.589,418.665L468.589,418.665z"/>
		</g>
	</g>
	<g display="inline">
		<g>
			<path fill="#E099AD" d="M478.158,529.262c14.326-29.11,18.438-62.789,14.813-94.827c-1.659-14.656-5.48-28.74-10.75-42.489
				c-4.972-12.969-11.465-26.753-22.453-35.713c-2.476-2.019-6.035,1.497-3.535,3.535c10.743,8.761,16.845,22.233,21.697,34.893
				c5.127,13.374,8.612,27.151,10.224,41.39c3.451,30.497-0.689,63.007-14.312,90.688
				C472.423,529.62,476.735,532.155,478.158,529.262L478.158,529.262z"/>
		</g>
	</g>
	<g display="inline">
		<g>
			<path fill="#E099AD" d="M357,175.5c3.225,0,3.225-5,0-5S353.775,175.5,357,175.5L357,175.5z"/>
		</g>
	</g>
	<g display="inline">
		<g>
			<path fill="#E099AD" d="M354.589,177.335c-0.967,3.239-0.967,6.09,0,9.329c0.42,1.404,1.709,1.978,3.076,1.746
				c9.795-1.659,9.763-12.628,8.835-20.411c-0.2-1.683-1.436-2.75-3.165-2.411c-1.017,0.2-1.564,0.509-2.325,1.198
				c-0.628,0.57-0.598,1.56-1.271,2.054c-2.573,1.884-0.083,6.226,2.523,4.317c0.385-0.281,2.392-2.746,2.403-2.748
				c-1.056-0.804-2.11-1.607-3.165-2.411c0.641,5.371,1.962,14.382-5.165,15.589c1.025,0.582,2.051,1.164,3.076,1.746
				c-0.729-2.442-0.729-4.229,0-6.671C360.336,175.567,355.51,174.253,354.589,177.335L354.589,177.335z"/>
		</g>
	</g>
	<g display="inline">
		<g>
			<path fill="#E099AD" d="M359,177.5c3.225,0,3.225-5,0-5S355.775,177.5,359,177.5L359,177.5z"/>
		</g>
	</g>
	<g display="inline">
		<g>
			<path fill="#E099AD" d="M400,197.5c3.225,0,3.225-5,0-5S396.775,197.5,400,197.5L400,197.5z"/>
		</g>
	</g>
	<g display="inline">
		<g>
			<path fill="#E099AD" d="M397.738,192.841c-5.976,2.635-7.29,9.097-5.149,14.823c1.119,2.992,5.953,1.697,4.822-1.329
				c-1.421-3.798-1.196-7.392,2.851-9.177C403.206,195.86,400.659,191.553,397.738,192.841L397.738,192.841z"/>
		</g>
	</g>
	<g display="inline">
		<g>
			<path fill="#E099AD" d="M397,198.5c3.225,0,3.225-5,0-5S393.775,198.5,397,198.5L397,198.5z"/>
		</g>
	</g>
	<g display="inline">
		<g>
			<path fill="#E099AD" d="M348,223.5c3.225,0,3.225-5,0-5S344.775,223.5,348,223.5L348,223.5z"/>
		</g>
	</g>
	<g display="inline">
		<g>
			<path fill="#E099AD" d="M348,236.5c3.225,0,3.225-5,0-5S344.775,236.5,348,236.5L348,236.5z"/>
		</g>
	</g>
	<g display="inline">
		<g>
			<path fill="#E099AD" d="M335,140.5c3.225,0,3.225-5,0-5S331.775,140.5,335,140.5L335,140.5z"/>
		</g>
	</g>
	<g display="inline">
		<g>
			<path fill="#E099AD" d="M332.5,138c0,0.153-0.001,0.306-0.006,0.458c-0.019,0.259,0.002,0.124,0.063-0.408
				c-0.031,0.21-0.213,0.507,0.16-0.313c-0.211,0.463,0.469-0.518,0.054-0.056c-0.171,0.19-0.357,0.369-0.538,0.55
				c-0.963,0.963-0.964,2.572,0,3.535c0.963,0.963,2.572,0.964,3.535,0c0.457-0.457,0.954-0.934,1.266-1.506
				c0.387-0.708,0.466-1.469,0.467-2.262c0.001-1.363-1.138-2.5-2.5-2.5C333.637,135.5,332.501,136.637,332.5,138L332.5,138z"/>
		</g>
	</g>
	<g display="inline">
		<g>
			<path fill="#E099AD" d="M333,146.5c3.225,0,3.225-5,0-5S329.775,146.5,333,146.5L333,146.5z"/>
		</g>
	</g>
	<g display="inline">
		<g>
			<path fill="#E099AD" d="M312,190.5c3.225,0,3.225-5,0-5S308.775,190.5,312,190.5L312,190.5z"/>
		</g>
	</g>
	<g display="inline">
		<g>
			<path fill="#E099AD" d="M315.411,186.665c0.228-0.879,0.434-1.766,0.734-2.624c-1.637-0.221-3.274-0.443-4.911-0.665
				c0-0.276-0.75,2.288-0.646,1.959C309.609,188.417,314.437,189.725,315.411,186.665c0.326-1.026,0.823-2.186,0.823-3.289
				c0-2.93-4.001-3.262-4.91-0.665c-0.301,0.858-0.507,1.745-0.735,2.624C309.779,188.459,314.602,189.784,315.411,186.665
				L315.411,186.665z"/>
		</g>
	</g>
	<g display="inline">
		<g>
			<path fill="#E099AD" d="M313,190.5c3.225,0,3.225-5,0-5S309.775,190.5,313,190.5L313,190.5z"/>
		</g>
	</g>
	<g display="inline">
		<g>
			<path fill="#E099AD" d="M433,235.5c3.225,0,3.225-5,0-5S429.775,235.5,433,235.5L433,235.5z"/>
		</g>
	</g>
	<g display="inline">
		<g>
			<path fill="#E099AD" d="M431.232,231.232c-2.411,2.554-3.551,5.832-4.644,9.103c-1.023,3.067,3.806,4.372,4.822,1.329
				c0.806-2.416,1.569-5.003,3.356-6.897C436.979,232.425,433.449,228.883,431.232,231.232L431.232,231.232z"/>
		</g>
	</g>
	<g display="inline">
		<g>
			<path fill="#E099AD" d="M436.411,255.665c1.997-6.424,2.061-12.936-1.253-18.926c-1.561-2.822-5.879-0.3-4.316,2.523
				c2.675,4.836,2.345,9.937,0.747,15.074C430.629,257.423,435.457,258.733,436.411,255.665L436.411,255.665z"/>
		</g>
	</g>
	<g display="inline">
		<g>
			<path fill="#E099AD" d="M509,258.5c3.225,0,3.225-5,0-5S505.775,258.5,509,258.5L509,258.5z"/>
		</g>
	</g>
	<g display="inline">
		<g>
			<path fill="#E099AD" d="M504.738,256.841C497.33,262.466,493.58,270.686,494.5,280c0.313,3.178,5.316,3.208,5,0
				c-0.732-7.415,1.72-14.254,7.762-18.841C509.794,259.236,507.308,254.89,504.738,256.841L504.738,256.841z"/>
		</g>
	</g>
	<g display="inline">
		<g>
			<path fill="#E099AD" d="M506,277.5c3.225,0,3.225-5,0-5S502.775,277.5,506,277.5L506,277.5z"/>
		</g>
	</g>
	<g display="inline">
		<g>
			<path fill="#E099AD" d="M510.232,255.232c-3.534,3.483-7.347,6.55-10.391,10.506c-0.834,1.083-0.167,2.797,0.896,3.42
				c1.288,0.755,2.591,0.181,3.42-0.897c2.758-3.583,6.408-6.338,9.609-9.494C516.066,256.501,512.529,252.968,510.232,255.232
				L510.232,255.232z"/>
		</g>
	</g>
	<g display="inline">
		<g>
			<path fill="#E099AD" d="M477,347.5c3.225,0,3.225-5,0-5S473.775,347.5,477,347.5L477,347.5z"/>
		</g>
	</g>
	<g display="inline">
		<g>
			<path fill="#E099AD" d="M482.262,345.159c10.551-7.481,21.864-10.437,34.738-9.659c3.222,0.195,3.203-4.806,0-5
				c-13.662-0.826-26.062,2.4-37.262,10.341C477.131,342.689,479.625,347.028,482.262,345.159L482.262,345.159z"/>
		</g>
	</g>
	<g display="inline">
		<g>
			<path fill="#E099AD" d="M523,336.5c3.225,0,3.225-5,0-5S519.775,336.5,523,336.5L523,336.5z"/>
		</g>
	</g>
	<g display="inline">
		<g>
			<path fill="#E099AD" d="M530,333.5c3.225,0,3.225-5,0-5S526.775,333.5,530,333.5L530,333.5z"/>
		</g>
	</g>
	<g display="inline">
		<g>
			<path fill="#E099AD" d="M525.738,329.841c-7.314,3.946-6.977,11.056-2.896,17.42c0.685,1.069,2.274,1.708,3.42,0.897
				c6.259-4.432,8.782-11.466,4.896-18.42c-0.545-0.976-1.758-1.441-2.823-1.149c-4.364,1.198-7.862,3.446-10.493,7.149
				c-1.873,2.635,2.466,5.128,4.316,2.523c1.857-2.613,4.467-4.017,7.507-4.851c-0.941-0.383-1.883-0.766-2.823-1.149
				c2.478,4.436,0.918,8.731-3.104,11.58c1.14,0.299,2.28,0.598,3.42,0.897c-2.605-4.065-3.775-7.948,1.104-10.58
				C531.101,332.627,528.576,328.311,525.738,329.841L525.738,329.841z"/>
		</g>
	</g>
	<g display="inline">
		<g>
			<path fill="#E099AD" d="M514,409.5c3.225,0,3.225-5,0-5S510.775,409.5,514,409.5L514,409.5z"/>
		</g>
	</g>
	<g display="inline">
		<g>
			<path fill="#E099AD" d="M511.5,407c-0.052,10.034-0.8,20.178,3.089,29.665c0.899,2.191,4.058,2.555,4.822,0
				c2.03-6.789,1.993-13.684,1.089-20.665c-0.408-3.151-5.413-3.191-5,0c0.849,6.55,1,12.946-0.911,19.335c1.607,0,3.215,0,4.822,0
				c-3.726-9.086-2.961-18.729-2.911-28.335C516.517,403.775,511.517,403.776,511.5,407L511.5,407z"/>
		</g>
	</g>
	<g display="inline">
		<g>
			<path fill="#E099AD" d="M513,412.5c3.225,0,3.225-5,0-5S509.775,412.5,513,412.5L513,412.5z"/>
		</g>
	</g>
	<g display="inline">
		<g>
			<path fill="#E099AD" d="M261.5,305c-0.075,3.414-0.544,6.178,1.341,9.262c0.734,1.201,2.196,1.541,3.42,0.897
				c4.583-2.41,6.168-6.674,7.149-11.494c0.641-3.147-4.178-4.488-4.821-1.329c-0.724,3.555-1.438,6.711-4.851,8.506
				c1.14,0.299,2.28,0.598,3.42,0.897c-1.337-2.187-0.712-4.313-0.659-6.738C266.571,301.774,261.571,301.781,261.5,305L261.5,305z"
				/>
		</g>
	</g>
	<g display="inline">
		<g>
			<path fill="#E099AD" d="M271,303.5c3.224,0,3.224-5,0-5S267.776,303.5,271,303.5L271,303.5z"/>
		</g>
	</g>
	<g display="inline">
		<g>
			<path fill="#E099AD" d="M237.589,366.335c-1.986,5.511-1.109,11.157,2.252,15.926c1.154,1.637,3.15,1.556,4.317,0
				c4.221-5.625,4.493-12.742-0.391-18.029c-0.542-0.587-1.661-0.964-2.432-0.643c-3.852,1.603-5.345,4.793-7.494,8.149
				c-1.744,2.724,2.585,5.229,4.317,2.523c1.208-1.886,2.298-4.932,4.506-5.851c-0.811-0.214-1.622-0.429-2.432-0.643
				c3.435,3.718,2.419,8.226-0.391,11.971c1.439,0,2.878,0,4.317,0c-2.668-3.786-3.329-7.688-1.748-12.074
				C243.507,364.624,238.674,363.326,237.589,366.335L237.589,366.335z"/>
		</g>
	</g>
	<g display="inline">
		<g>
			<path fill="#E099AD" d="M250,460.5c3.224,0,3.224-5,0-5S246.776,460.5,250,460.5L250,460.5z"/>
		</g>
	</g>
	<g display="inline">
		<g>
			<path fill="#E099AD" d="M245.589,455.335c-1.096,3.66,2.113,7.315,4.643,9.433c1.256,1.052,3.009,0.94,3.926-0.506
				c2.699-4.255,3.124-9.048,2.252-13.927c-0.567-3.17-5.385-1.822-4.821,1.33c0.64,3.579,0.212,6.981-1.748,10.073
				c1.309-0.169,2.618-0.338,3.926-0.506c-1.224-1.025-2.596-2.17-3.174-3.715c-0.163-0.434-0.167-0.577-0.175-0.829
				c-0.02-0.624-0.16,0.484-0.008-0.023C251.338,453.568,246.512,452.255,245.589,455.335L245.589,455.335z"/>
		</g>
	</g>
	<g display="inline">
		<g>
			<path fill="#E099AD" d="M350,291.5c3.225,0,3.225-5,0-5S346.775,291.5,350,291.5L350,291.5z"/>
		</g>
	</g>
	<g display="inline">
		<g>
			<path fill="#E099AD" d="M343,307.5c3.225,0,3.225-5,0-5S339.775,307.5,343,307.5L343,307.5z"/>
		</g>
	</g>
	<g display="inline">
		<g>
			<path fill="#E099AD" d="M404.589,364.335c-1.106,3.992-2.858,7.069-2,11.329c0.515,2.548,4.13,2.224,4.822,0
				c1.227-3.942,1.549-8.494,1.667-12.599c0.047-1.621,0.059-3.925-1.568-4.848c-2.208-1.252-3.851,0.682-4.668,2.521
				c-1.298,2.919,3.009,5.465,4.316,2.523c0.111-0.25,0.834-1.43,0.484-1.043c-2.758-1.763-3.95-1.971-3.577-0.624
				c-0.128-0.553,0.009,0.37,0.011,0.403c0.063,1.379-0.067,2.775-0.187,4.148c-0.234,2.707-0.489,5.583-1.301,8.189
				c1.607,0,3.215,0,4.822,0c-0.613-3.04,1.208-5.818,2-8.671C410.274,362.552,405.45,361.232,404.589,364.335L404.589,364.335z"/>
		</g>
	</g>
	<g display="inline">
		<g>
			<path fill="#E099AD" d="M406,442.5c3.225,0,3.225-5,0-5S402.775,442.5,406,442.5L406,442.5z"/>
		</g>
	</g>
	<g display="inline">
		<g>
			<path fill="#E099AD" d="M401.842,443.738c-4.494,5.968-5.095,12.777-2,19.523c1.343,2.928,5.651,0.385,4.316-2.523
				c-2.376-5.183-1.345-10.033,2-14.477C408.1,443.684,403.755,441.196,401.842,443.738L401.842,443.738z"/>
		</g>
	</g>
	<g display="inline">
		<g>
			<path fill="#E099AD" d="M409.5,466c0.788-6.252,0.706-13.793-3.732-18.768c-2.15-2.411-5.674,1.138-3.535,3.535
				c3.429,3.843,2.861,10.526,2.268,15.232C404.098,469.193,409.103,469.154,409.5,466L409.5,466z"/>
		</g>
	</g>
	<g display="inline">
		<g>
			<path fill="#E099AD" d="M425,555.5c3.225,0,3.225-5,0-5S421.775,555.5,425,555.5L425,555.5z"/>
		</g>
	</g>
	<g display="inline">
		<g>
			<path fill="#E099AD" d="M421.232,551.232c-0.334,0.333-0.667,0.666-1,1c-0.963,0.963-0.963,2.572,0,3.535s2.572,0.963,3.535,0
				c0.334-0.333,0.667-0.666,1-1c0.963-0.963,0.963-2.572,0-3.535S422.195,550.27,421.232,551.232L421.232,551.232z"/>
		</g>
	</g>
	<g display="inline">
		<g>
			<path fill="#E099AD" d="M416.589,565.665c1.168,4.53,2.938,8.124,6.644,11.103c1.542,1.24,3.458,0.751,4.179-1.103
				c2.847-7.325,2.078-14.726,1-22.33c-0.354-2.491-4.307-2.293-4.822,0c-1.086,4.832-0.89,9.482,0,14.33
				c0.582,3.168,5.4,1.822,4.822-1.33c-0.728-3.961-0.887-7.727,0-11.67c-1.607,0-3.215,0-4.822,0c0.959,6.755,1.526,13.173-1,19.67
				c1.394-0.367,2.786-0.735,4.179-1.103c-3.063-2.462-4.392-5.15-5.356-8.897C420.606,561.215,415.784,562.54,416.589,565.665
				L416.589,565.665z"/>
		</g>
	</g>
	<g display="inline">
		<g>
			<path fill="#E099AD" d="M491,454.5c3.225,0,3.225-5,0-5S487.775,454.5,491,454.5L491,454.5z"/>
		</g>
	</g>
	<g display="inline">
		<g>
			<path fill="#E099AD" d="M486.738,449.842c-10.387,7.733-7.102,25.732,4,31.316c1.31,0.659,3.392,0.196,3.673-1.493
				c0.575-3.468,4.719-22.13-4.076-19.076c-3.025,1.051-1.725,5.883,1.33,4.822c-1.261,0.438-0.784,0.401-0.775,2.045
				c0.006,1.157-0.122,2.319-0.228,3.47c-0.228,2.483-0.664,4.95-1.073,7.409c1.225-0.498,2.449-0.995,3.673-1.493
				c-7.339-3.692-11.526-17.079-4-22.684C491.816,452.257,489.328,447.913,486.738,449.842L486.738,449.842z"/>
		</g>
	</g>
	<g display="inline">
		<g>
			<path fill="#E099AD" d="M492.5,568c-0.955,11.673-0.04,24.119,6.342,34.262c1.383,2.199,4.458,1.179,4.658-1.262
				c0.973-11.88,0.154-24.917-6.342-35.262c-1.243-1.98-3.767-1.356-4.569,0.597c-0.926,2.257-1.313,4.664-2,7
				c-0.911,3.102,3.915,4.416,4.822,1.33c0.687-2.337,1.073-4.744,2-7c-1.523,0.198-3.047,0.397-4.569,0.597
				c6.046,9.629,6.563,21.702,5.658,32.738c1.553-0.421,3.105-0.841,4.658-1.262c-5.934-9.431-6.544-20.908-5.658-31.738
				C497.763,564.784,492.761,564.81,492.5,568L492.5,568z"/>
		</g>
	</g>
	<g display="inline">
		<g>
			<path fill="#E099AD" d="M499.5,653c0.065,10.565,1.36,20.801,6.342,30.262c0.859,1.634,3.454,1.623,4.316,0
				c3.421-6.431,4.078-15.258,2.854-22.327c-1.473-8.508-8.648-7.612-13.779-2.702c-2.334,2.232,1.207,5.764,3.535,3.535
				c0.943-0.902,3.488-3.846,4.648-1.974c1.14,1.84,1.068,4.565,1.103,6.64c0.074,4.618-0.472,10.158-2.677,14.305
				c1.438,0,2.878,0,4.316,0c-4.563-8.667-5.598-18.075-5.658-27.738C504.479,649.776,499.479,649.774,499.5,653L499.5,653z"/>
		</g>
	</g>
	<g display="inline">
		<g>
			<path fill="#E099AD" d="M313.5,113c0.044,2.125,0.418,4.2,1.291,6.146c0.691,1.543,2.179,4.468,4.209,4.354
				c4.411-0.25,6.026-3.958,8.158-7.238c1.763-2.712-2.567-5.216-4.316-2.523c-0.83,1.276-2.052,4.661-3.842,4.762
				c0.589,0.244,1.179,0.488,1.768,0.732c-1.606-1.71-2.22-3.929-2.268-6.232C318.433,109.78,313.433,109.774,313.5,113L313.5,113z"
				/>
		</g>
	</g>
	<g display="inline">
		<g>
			<path fill="#E099AD" d="M325,107.5c3.225,0,3.225-5,0-5S321.775,107.5,325,107.5L325,107.5z"/>
		</g>
	</g>
	<g display="inline">
		<g>
			<path fill="#E099AD" d="M321,116.5c3.225,0,3.225-5,0-5S317.775,116.5,321,116.5L321,116.5z"/>
		</g>
	</g>
	<g display="inline">
		<g>
			<path fill="#E099AD" d="M320,111.5c-0.667,0-1.333,0-2,0c-1.363,0-2.5,1.137-2.5,2.5s1.137,2.5,2.5,2.5c0.667,0,1.333,0,2,0
				c1.363,0,2.5-1.137,2.5-2.5S321.363,111.5,320,111.5L320,111.5z"/>
		</g>
	</g>
	<g display="inline">
		<g>
			<path fill="#E099AD" d="M318,115.5c3.225,0,3.225-5,0-5S314.775,115.5,318,115.5L318,115.5z"/>
		</g>
	</g>
	<g display="inline">
		<g>
			<path fill="#E099AD" d="M331,110.5c3.225,0,3.225-5,0-5S327.775,110.5,331,110.5L331,110.5z"/>
		</g>
	</g>
	<g display="inline">
		<g>
			<path fill="#E099AD" d="M320,119.5c3.225,0,3.225-5,0-5S316.775,119.5,320,119.5L320,119.5z"/>
		</g>
	</g>
	<g display="inline">
		<g>
			<path fill="#E099AD" d="M513.589,485.335c-0.889,4.509-0.358,8.967,1,13.33c0.441,1.416,2.313,2.481,3.673,1.493
				c7.145-5.189,9.127-13.707,8.238-22.158c-0.238-2.266-3.397-3.672-4.658-1.262c-0.736,1.406-1.569,2.76-2.394,4.114
				c-0.536,0.881-1.086,1.753-1.64,2.623c-0.109,0.172-1.172,1.539-0.701,1.075c1.393,0.811,2.785,1.621,4.179,2.432
				c-0.043,0.094-0.085,0.187-0.128,0.279c1.347-2.905-2.962-5.446-4.316-2.523c-0.137,0.295-0.326,0.595-0.377,0.915
				c-0.378,2.351,2.259,4.326,4.178,2.433c2.314-2.283,4.024-5.972,5.516-8.824c-1.553-0.421-3.105-0.841-4.658-1.262
				c0.678,6.447-0.112,13.736-5.762,17.842c1.224,0.498,2.448,0.995,3.673,1.493c-1.081-3.469-1.713-7.058-1-10.67
				C519.031,483.516,514.213,482.174,513.589,485.335L513.589,485.335z"/>
		</g>
	</g>
	<g display="inline">
		<g>
			<path fill="#E099AD" d="M488.5,683c0.006,7.432,0.305,14.68,3.089,21.665c0.693,1.738,3.591,2.821,4.569,0.597
				c3.184-7.235,1.676-15.266-3-21.523c-1.052-1.408-3.349-1.812-4.316,0c-0.62,1.16-1.22,2.335-0.94,3.692
				c0.264,1.28,1.467,2.057,1.688,3.234c0.595,3.166,5.413,1.821,4.822-1.33c-0.167-0.885-1.531-2.552-1.253-3.073
				c-1.438,0-2.878,0-4.316,0c3.485,4.666,5.464,10.874,3,16.477c1.522,0.199,3.046,0.398,4.569,0.597
				c-2.628-6.591-2.906-13.326-2.911-20.335C493.498,679.775,488.498,679.775,488.5,683L488.5,683z"/>
		</g>
	</g>
	<g display="inline">
		<g>
			<path fill="#E099AD" d="M518.5,721c0.037,3.368,0.623,6.904,3.1,9.381c2.406,2.406,5.919,2.507,9.065,2.03
				c1.349-0.205,2.074-1.881,1.746-3.076c-0.394-1.429-1.729-1.949-3.076-1.746c-1.564,0.237-3.269,0.188-4.431-0.974
				c-1.353-1.353-1.385-3.854-1.404-5.615C523.464,717.777,518.464,717.774,518.5,721L518.5,721z"/>
		</g>
	</g>
	<g display="inline">
		<g>
			<path fill="#E099AD" d="M525,715.5c3.225,0,3.225-5,0-5S521.775,715.5,525,715.5L525,715.5z"/>
		</g>
	</g>
	<g display="inline">
		<g>
			<path fill="#E099AD" d="M395.589,616.665c5.07,33.118,20.822,62.777,32,94c1.079,3.012,5.911,1.714,4.822-1.33
				c-11.179-31.222-26.931-60.881-32-94C399.924,612.156,395.106,613.512,395.589,616.665L395.589,616.665z"/>
		</g>
	</g>
	<g display="inline">
		<g>
			<path fill="#E099AD" d="M315,565.5c3.225,0,3.225-5,0-5S311.775,565.5,315,565.5L315,565.5z"/>
		</g>
	</g>
	<g display="inline">
		<g>
			<path fill="#E099AD" d="M311,560.5c-15.364-1.031-30.445,8.482-41.619,18.069c-10.604,9.1-22.043,23.135-19.495,38.063
				c2.57,15.051,16.77,26.911,28.179,35.603c13.097,9.978,27.635,17.898,40.673,27.923c2.557,1.966,5.042-2.381,2.523-4.316
				c-10.938-8.41-23.045-15.245-34.299-23.221c-12.011-8.513-26.021-19.05-31.215-33.425c-4.903-13.569,5.999-26.683,15.261-35.379
				c10.265-9.637,25.312-19.303,39.991-18.317C314.221,565.716,314.199,560.715,311,560.5L311,560.5z"/>
		</g>
	</g>
	<g display="inline">
		<g>
			<path fill="#E099AD" d="M314,678.5c3.225,0,3.225-5,0-5S310.775,678.5,314,678.5L314,678.5z"/>
		</g>
	</g>
	<g display="inline">
		<g>
			<path fill="#E099AD" d="M314.335,678.411c2.609,0.913,4.923,2.571,6.507,4.851c1.825,2.628,6.161,0.132,4.316-2.523
				c-2.367-3.409-5.583-5.78-9.493-7.149C312.613,672.521,311.313,677.353,314.335,678.411L314.335,678.411z"/>
		</g>
	</g>
	<g display="inline">
		<g>
			<path fill="#E099AD" d="M332.738,690.158c27.639,15.385,54.717,31.799,83,46c1.8,0.904,3.565-0.234,3.762-2.158
				c2.207-21.666-1.282-43.836-6.714-64.79c-5.388-20.779-13.363-41.728-25.628-59.472c-1.819-2.633-6.155-0.137-4.316,2.523
				c12.083,17.482,19.691,37.853,25.122,58.278c5.448,20.488,8.695,42.259,6.536,63.46c1.254-0.72,2.508-1.439,3.762-2.158
				c-28.283-14.202-55.361-30.616-83-46C332.442,684.271,329.921,688.591,332.738,690.158L332.738,690.158z"/>
		</g>
	</g>
	<g display="inline">
		<g>
			<path fill="#E099AD" d="M420,731.5c3.225,0,3.225-5,0-5S416.775,731.5,420,731.5L420,731.5z"/>
		</g>
	</g>
	<g display="inline">
		<g>
			<path fill="#E099AD" d="M281,104.5c3.224,0,3.224-5,0-5S277.776,104.5,281,104.5L281,104.5z"/>
		</g>
	</g>
	<g display="inline">
		<g>
			<path fill="#E099AD" d="M283,106.5c3.224,0,3.224-5,0-5S279.776,106.5,283,106.5L283,106.5z"/>
		</g>
	</g>
	<g display="inline">
		<g>
			<path fill="#E099AD" d="M312,317.5c3.225,0,3.225-5,0-5S308.775,317.5,312,317.5L312,317.5z"/>
		</g>
	</g>
	<g display="inline">
		<g>
			<path fill="#E099AD" d="M313.768,312.232c-0.457-0.457-0.934-0.954-1.506-1.266c-0.708-0.386-1.47-0.466-2.262-0.466
				c-1.363-0.001-2.5,1.138-2.5,2.5c0,1.364,1.137,2.499,2.5,2.5c0.153,0,0.306,0,0.458,0.006c0.26,0.019,0.124-0.002-0.407-0.063
				c0.211,0.032,0.507,0.213-0.313-0.159c0.463,0.21-0.518-0.469-0.057-0.055c0.19,0.172,0.369,0.357,0.551,0.539
				c0.963,0.963,2.572,0.964,3.535,0C314.73,314.805,314.731,313.195,313.768,312.232L313.768,312.232z"/>
		</g>
	</g>
	<g display="inline">
		<g>
			<path fill="#E099AD" d="M309,315.5c3.225,0,3.225-5,0-5C305.776,310.5,305.776,315.5,309,315.5L309,315.5z"/>
		</g>
	</g>
	<g display="inline">
		<g>
			<path fill="#E099AD" d="M305.589,318.335c-1.966,5.359-2.102,10.686,0.252,15.926c0.35,0.778,1.351,1.238,2.159,1.238
				c3.642,0,4.935-3.714,6.161-6.69c1.869-4.532,1.638-9.866,0.25-14.475c-0.928-3.079-5.754-1.766-4.822,1.329
				c1.716,5.695,0.823,11.297-2.748,16.074c0.719-0.413,1.439-0.826,2.159-1.238c-0.333,0-0.667,0-1,0
				c0.72,0.413,1.439,0.826,2.158,1.238c-1.791-3.988-1.208-8.093,0.253-12.074C311.523,316.631,306.69,315.334,305.589,318.335
				L305.589,318.335z"/>
		</g>
	</g>
	<g display="inline">
		<g>
			<path fill="#E099AD" d="M308,322.5c3.225,0,3.225-5,0-5C304.776,317.5,304.776,322.5,308,322.5L308,322.5z"/>
		</g>
	</g>
	<g display="inline">
		<g>
			<path fill="#E099AD" d="M285.232,458.232c-2.333,2.333-4.667,4.666-7,7c-2.282,2.281,1.253,5.817,3.535,3.535
				c2.333-2.333,4.667-4.666,7-7C291.05,459.486,287.514,455.95,285.232,458.232L285.232,458.232z"/>
		</g>
	</g>
	<g display="inline">
		<g>
			<path fill="#E099AD" d="M363,448.5c3.225,0,3.225-5,0-5S359.775,448.5,363,448.5L363,448.5z"/>
		</g>
	</g>
	<g display="inline">
		<g>
			<path fill="#E099AD" d="M357.842,452.738c-5.861,13.015-9.143,26.991-15,40c-1.313,2.915,2.995,5.459,4.316,2.523
				c5.861-13.015,9.143-26.991,15-40C363.472,452.347,359.163,449.803,357.842,452.738L357.842,452.738z"/>
		</g>
	</g>
	<g display="inline">
		<g>
			<path fill="#E099AD" d="M340.158,513.262c7.07-16.276,13.036-32.984,19.253-49.597c-1.607-0.443-3.215-0.887-4.822-1.33
				c-4.256,23.115-16.924,43.43-23,66c1.638,0.222,3.274,0.443,4.911,0.665c0-2,0-4,0-6c0-3.225-5-3.225-5,0c0,2,0,4,0,6
				c0,2.825,4.174,3.402,4.911,0.665c6.075-22.571,18.743-42.886,23-66c0.586-3.186-3.691-4.351-4.822-1.33
				c-6.063,16.206-11.851,32.525-18.747,48.403C334.57,513.664,338.877,516.213,340.158,513.262L340.158,513.262z"/>
		</g>
	</g>
	<g display="inline">
		<g>
			<path fill="#E099AD" d="M340.158,513.262c4.255-9.805,6.722-19.253,4.993-29.927c-0.933-5.76-2.743-11.614-4.932-17.008
				c-2.381-5.869-4.271-10.854-3.72-17.327c0.273-3.215-4.729-3.188-5,0c-0.887,10.415,4.558,19.313,7.307,29.081
				c3.268,11.611,1.803,21.669-2.965,32.657C334.571,513.664,338.878,516.213,340.158,513.262L340.158,513.262z"/>
		</g>
	</g>
	<g display="inline">
		<g>
			<path fill="#E099AD" d="M336,438.5c3.225,0,3.225-5,0-5S332.775,438.5,336,438.5L336,438.5z"/>
		</g>
	</g>
	<g display="inline">
		<g>
			<path fill="#E099AD" d="M337.5,432c-0.002-2.084-0.276-4.17-1.732-5.768c-0.918-1.008-2.605-0.93-3.535,0
				c-0.997,0.996-0.917,2.529,0,3.535c-0.465-0.51,0.234,0.568-0.008-0.048c0.132,0.336,0.197,0.698,0.257,1.052
				c-0.103-0.613-0.001,0.251,0.005,0.371c0.015,0.285,0.014,0.571,0.014,0.857c0.001,1.363,1.137,2.5,2.5,2.5
				C336.362,434.5,337.501,433.363,337.5,432L337.5,432z"/>
		</g>
	</g>
	<g display="inline">
		<g>
			<path fill="#E099AD" d="M327.738,433.842c-10.625,7.615-19.359,17.269-26.897,27.896c-1.658,2.338,2.015,5.083,3.926,3.029
				c2.098-2.253,3.902-4.747,6-7c2.194-2.356-1.334-5.899-3.535-3.535c-2.098,2.253-3.903,4.747-6,7
				c1.309,1.01,2.617,2.02,3.926,3.029c7.012-9.889,15.214-19.016,25.103-26.104C332.857,436.299,330.365,431.959,327.738,433.842
				L327.738,433.842z"/>
		</g>
	</g>
	<g display="inline">
		<g>
			<path fill="#E099AD" d="M297.738,448.842c-13.757,8.98-25.427,20.342-36.506,32.391c-1.451,1.577-0.481,4.268,1.768,4.268
				c0.667,0,1.333,0,2,0c-0.833-0.833-1.667-1.667-2.5-2.5c0.299,12.113-2.449,23.083-7.785,33.901
				c-5.065,10.269-10.508,20.169-15.118,30.669c-4.055,9.237-8.002,18.658-13.881,26.918c-6.004,8.436-14.734,14.035-23.978,18.354
				c-2.919,1.363-0.379,5.672,2.523,4.316c9.244-4.316,17.618-9.875,24.053-17.883c6.625-8.244,10.773-18.205,14.996-27.805
				c4.998-11.363,10.826-22.119,16.31-33.236c5.49-11.13,8.188-22.813,7.88-35.234c-0.034-1.362-1.112-2.5-2.5-2.5
				c-0.667,0-1.333,0-2,0c0.589,1.423,1.179,2.845,1.768,4.268c10.789-11.732,22.093-22.859,35.494-31.609
				C302.95,451.404,300.447,447.073,297.738,448.842L297.738,448.842z"/>
		</g>
	</g>
	<g display="inline">
		<g>
			<path fill="#E099AD" d="M204.335,601.411c14.438,3.873,29.762,2.207,44,7c0.443-1.607,0.886-3.215,1.329-4.822
				c-0.632-0.452-1.265-0.904-1.897-1.356c-2.322-2.236-5.861,1.295-3.535,3.535c1.281,1.234,2.385,2.134,4.103,2.644
				c3.115,0.923,4.359-3.802,1.329-4.822c-14.256-4.798-29.563-3.127-44-7C202.546,595.753,201.224,600.576,204.335,601.411
				L204.335,601.411z"/>
		</g>
	</g>
	<g display="inline">
		<g>
			<path fill="#E099AD" d="M293,525.5c3.224,0,3.224-5,0-5S289.776,525.5,293,525.5L293,525.5z"/>
		</g>
	</g>
	<g display="inline">
		<g>
			<path fill="#E099AD" d="M290.5,523c0,0.333,0,0.667,0,1c0,1.363,1.137,2.5,2.5,2.5s2.5-1.137,2.5-2.5c0-0.333,0-0.667,0-1
				c0-1.363-1.137-2.5-2.5-2.5S290.5,521.637,290.5,523L290.5,523z"/>
		</g>
	</g>
	<g display="inline">
		<g>
			<path fill="#E099AD" d="M285.841,528.738c-2.437,3.263-4.741,6.612-7,10c-1.794,2.691,2.539,5.191,4.317,2.523
				c2.259-3.388,4.563-6.737,7-10C292.09,528.675,287.746,526.188,285.841,528.738L285.841,528.738z"/>
		</g>
	</g>
	<g display="inline">
		<g>
			<path fill="#E099AD" d="M277.5,546c-0.043,0.793,0.147-0.208-0.131,0.429c0.047-0.108,0.503-0.778,0.154-0.327
				c0.372-0.479,0.817-0.905,1.245-1.334c0.963-0.964,0.964-2.572,0-3.535c-0.962-0.963-2.573-0.964-3.535,0
				c-1.352,1.354-2.623,2.764-2.732,4.768c-0.074,1.362,1.193,2.5,2.5,2.5C276.419,548.5,277.426,547.36,277.5,546L277.5,546z"/>
		</g>
	</g>
	<g display="inline">
		<g>
			<path fill="#E099AD" d="M281.232,535.232c-6.929,8.099-12.231,17.222-17.391,26.506c-1.597,2.874,2.46,5.087,4.317,2.523
				c5.024-6.936,10.591-13.404,16.609-19.494c1.957-1.979-0.618-5.539-3.029-3.926c-3.368,2.252-6.571,4.588-9.506,7.391
				c-2.336,2.23,1.205,5.761,3.535,3.535c2.625-2.506,5.485-4.596,8.494-6.609c-1.01-1.309-2.02-2.617-3.029-3.926
				c-6.319,6.394-12.118,13.227-17.391,20.506c1.439,0.841,2.878,1.683,4.317,2.523c4.946-8.898,9.965-17.728,16.609-25.494
				C286.852,536.332,283.332,532.778,281.232,535.232L281.232,535.232z"/>
		</g>
	</g>
	<g display="inline">
		<g>
			<path fill="#E099AD" d="M269.589,559.665c2.275,9.045,0.705,21.548-10.589,22.835c-3.166,0.36-3.201,5.364,0,5
				c14.727-1.678,18.595-16.505,15.411-29.165C273.625,555.21,268.802,556.536,269.589,559.665L269.589,559.665z"/>
		</g>
	</g>
	<g display="inline">
		<g>
			<path fill="#E099AD" d="M423,700.5c3.225,0,3.225-5,0-5S419.775,700.5,423,700.5L423,700.5z"/>
		</g>
	</g>
	<g display="inline">
		<g>
			<path fill="#E099AD" d="M420.335,698.589c-3.986,1.485-5.482,4.962-6.746,8.746c-1.023,3.067,3.806,4.372,4.822,1.33
				c0.603-1.807,1.243-4.506,3.254-5.254c1.275-0.476,2.131-1.674,1.746-3.076C423.073,699.108,421.613,698.113,420.335,698.589
				L420.335,698.589z"/>
		</g>
	</g>
	<g display="inline">
		<g>
			<path fill="#E099AD" d="M425.335,713.411c7.779,2.16,15.894,2.341,23.834,3.586c4.19,0.656,8.666,1.738,12.346,3.897
				c3.297,1.936,5.746,5.514,8.422,8.178c4.171,4.152,9.386,5.424,14.991,6.523c6.162,1.209,13.595,2.126,15.661,9.069
				c0.918,3.082,5.744,1.769,4.822-1.33c-4.453-14.956-22.503-9.129-31.939-17.799c-2.722-2.501-4.949-5.438-7.824-7.789
				c-2.983-2.438-6.78-3.581-10.435-4.592c-9.322-2.578-19.215-1.974-28.548-4.566C423.552,707.725,422.233,712.549,425.335,713.411
				L425.335,713.411z"/>
		</g>
	</g>
	<g display="inline">
		<g>
			<path fill="#E099AD" d="M505,753.5c3.225,0,3.225-5,0-5S501.775,753.5,505,753.5L505,753.5z"/>
		</g>
	</g>
	<g display="inline">
		<g>
			<path fill="#E099AD" d="M502.5,752c0,0.333,0,0.667,0,1c0,1.363,1.137,2.5,2.5,2.5s2.5-1.137,2.5-2.5c0-0.333,0-0.667,0-1
				c0-1.363-1.137-2.5-2.5-2.5S502.5,750.637,502.5,752L502.5,752z"/>
		</g>
	</g>
	<g display="inline">
		<g>
			<path fill="#E099AD" d="M498,756.5c-2.623,0.002-5.157,0.286-7.665,1.089c-3.058,0.979-1.75,5.808,1.33,4.822
				c2.119-0.679,4.122-0.91,6.335-0.911C501.225,761.498,501.225,756.498,498,756.5L498,756.5z"/>
		</g>
	</g>
	<g display="inline">
		<g>
			<path fill="#E099AD" d="M477,755.5c-1.333,0-2.667,0-4,0c-1.363,0-2.5,1.137-2.5,2.5s1.137,2.5,2.5,2.5c1.333,0,2.667,0,4,0
				c1.363,0,2.5-1.137,2.5-2.5S478.363,755.5,477,755.5L477,755.5z"/>
		</g>
	</g>
	<g display="inline">
		<g>
			<path fill="#E099AD" d="M462,757.5c3.225,0,3.225-5,0-5S458.775,757.5,462,757.5L462,757.5z"/>
		</g>
	</g>
	<g display="inline">
		<g>
			<path fill="#E099AD" d="M457.262,748.842c-12.711-8.773-25.673-17.189-39-25c-2.788-1.635-5.303,2.688-2.523,4.316
				c13.326,7.811,26.289,16.228,39,25C457.399,754.995,459.896,750.659,457.262,748.842L457.262,748.842z"/>
		</g>
	</g>
	<g display="inline">
		<g>
			<path fill="#E099AD" d="M404,733.5c3.225,0,3.225-5,0-5S400.775,733.5,404,733.5L404,733.5z"/>
		</g>
	</g>
	<g display="inline">
		<g>
			<path fill="#E099AD" d="M401.842,732.262c1,2,2,4,3,6c0.608,1.218,2.303,1.552,3.42,0.896c1.231-0.721,1.507-2.201,0.896-3.42
				c-1-2-2-4-3-6c-0.608-1.218-2.303-1.552-3.42-0.896C401.507,729.563,401.231,731.043,401.842,732.262L401.842,732.262z"/>
		</g>
	</g>
	<g display="inline">
		<g>
			<path fill="#E099AD" d="M426,749.5c8.043-0.783,15.968,0.855,24,1c2.76,0.05,3.496-4.497,0.665-4.911
				c-14.6-2.131-34.77-5.489-43.507-18.851c-1.756-2.687-6.087-0.184-4.316,2.523c9.604,14.69,30.355,18.793,46.493,21.149
				c0.222-1.638,0.443-3.274,0.665-4.911c-8.032-0.145-15.957-1.783-24-1C422.821,744.81,422.791,749.813,426,749.5L426,749.5z"/>
		</g>
	</g>
</g>
<g id="Layer_8">
	<g>
		<radialGradient id="SVGID_2_" cx="343.4355" cy="403.4844" r="372.9668" gradientUnits="userSpaceOnUse">
			<stop  offset="0" style="stop-color:#020828"/>
			<stop  offset="1" style="stop-color:#020828;stop-opacity:0"/>
		</radialGradient>
		<path fill="url(#SVGID_2_)" d="M264.08,26.365c-2.716-5.616,25.775-11.763,31.271-12.49c15.122-2,31.296-1.292,46.19,2.03
			c20.37,4.542,25.627,20.125,5.694,26.868c-13.436,4.546-46.904,16.631-12.856,23.15c14.004,2.681,29.773-0.239,44.045,0.269
			c17.317,0.616,34.617,2.566,51.448,6.784c8.507,2.132,22.336,5.229,28.271,11.975c-6.423,15.447-87.026,39.34-49.19,60.045
			c23.331,12.768,59.544,13.441,85.325,18.003c25.696,4.547,68.496,5.719,87.686,26.855
			c37.121,40.888-107.035,70.744-123.241,76.299c-10.243,3.512-59.012,16.757-42.989,35.623c6.086,7.166,20.85,7.309,29.393,8.248
			c16.383,1.8,33.24,1.682,49.704,2.756c11.031,0.72,20.848,2.12,31.064,6.415c-6.153,14.369-33.759,22.343-45.641,32.578
			c-26.511,22.835,27.641,20.632,42.226,21.174c33.377,1.24,106.805,4.137,90.318,55.806
			c-12.225,38.314-82.636,31.638-113.591,38.493c-16.3,3.61-35.991,17.977-26.306,36.749c9.8,18.995,34.686,22.83,53.271,27.199
			c10.458,2.46,48.807,7.968,48.9,23.781c0.073,12.367-32.672,16.169-41.365,18.271c-13.005,3.146-34.087,5.418-41.777,18.53
			c-11.588,19.757,29.943,13.343,40.247,12.441c26.815-2.346,64.726-1.538,87.575,16.03c0.017,0.013,0.034,0.026,0.051,0.039
			c13.784,10.663-2.061,27.217-7.351,37.981c-5.74,11.68-5.229,29.746,3.279,40.578c15.878,20.216,49.452,2.611,70.271,11.152
			C724.998,726.001,656,765,638,767c-29,4-58-12-87-12c-16,0-28,2-42,10c-13,7-28,25-43,29c-14,2-26-11-37-18c-14-9-27-17-43-23
			c-36-15-67-23-105-10c-32,11-70,35-104,29c-13-2-39-12-46-23c-9-16,9-25,19-35c29-26-19-16-36-13c-34,6-66,0-99-8s-36-38,0-42
			c29-3,62-3,87-19c-12-12-87-3-84-33c2-21,67-5,81-22c16-19-10-13-16-26c-7-16,20-22,32-24c34-4,67,7,101,0c12-2,57-8,42-25
			c-12-12-52-6-67-6c-24,0-48-1-72-5c-18-3-50-4-65-17c50-24,115-7,168-18c29-5,51-38,9-44c-27-4-64,0-86-17c13-7,103-23,91-50
			c-7-14-38-1-48-10c-8-6-4-4,3-10c8-6,19-10,28-15c17-10,28-20,2-25c-18-3-37-2-55-3c-21-1-96,1-97-30c-1-25,42-39,60-41
			c22-4,44,4,66,6c23.996,1,51.991-3.999,71.99-14.995c14.374-7.903,23.293-19.45,7.894-31.321
			c-10.509-8.102-25.219-24.089-6.708-33.685c4.975-2.579,13.48-2.824,15.621-9.08c3.185-9.311-10.229-12.618-16.797-13.865
			c-5.055-0.96-23.059,1.549-26.071-2.761c-7.976-11.416,23.257-16.295,18.767-30.672c-5.51-17.644-28.338,2.355-35.939-10.382
			c-8.979-15.047,28.673-16.817,35.386-20.236c-5.831-3.235-18.463-1.192-13.888-11.726c3.376-7.772,14.133-7.047,20.58-10.279
			C264.915,27.463,264.347,26.917,264.08,26.365z"/>
	</g>
	<g>
		<radialGradient id="SVGID_3_" cx="325.5" cy="396.1123" r="351.7289" gradientUnits="userSpaceOnUse">
			<stop  offset="0" style="stop-color:#08081C"/>
			<stop  offset="1" style="stop-color:#08081C;stop-opacity:0"/>
		</radialGradient>
		<path fill="url(#SVGID_3_)" d="M269.016,6.973c-0.427-4.968-8.436-3.223-11.439-2.614c-2.659,0.539-6.184,1.039-8.585,2.333
			c-1.205,0.649-1.313,1.825-2.687,2.303c-1.003,0.35-2.251-0.285-3.313,0.014c-1.81,0.51-2.365,1.691-3.732,2.667
			c-2.204,1.572-5.695,4.283-8.17,5.257c-7.932,3.125-17.402,0.602-24.966,5.604C197.298,28.375,192.053,40.442,200,49
			c13,14,21,3,9,23c-10,16-9,10,5,22c11,10,16,16,6,28c-17,21-59,17-83,27c-25,10-90,46-26,51c34,2,72,1,103,16c8,4,36,18,30,29
			c-5,9-37,5-45,4c-36-2-76-8-109,10c-13,7-34,25-14,34c12,5,36-2,49-1c23,1,56,4,75,20c-39,30-93,39-136,63c-4,2-24,12-23,18
			c1,8,22,4,28,3c23-2,50-10,73-7c-9,10-96,30-51,48c27,11,61,2,89,7c18,4,70,25,47,51c-19,21-71,11-95,7c-25-4-73-13-92,12
			c-25,34,31,35,50,39c30,6,62,15,89,28c14,7,33,12,17,26c-11,10-32,9-46,11c-50,8-9,21,10,41c-21,9-49,9-72,13c-21,3-59,13-68,36
			c14,14,73-3,92-4c32-1,65,1,96,6c18,4,86,15,49,36c-8,4-36,11-40,19c-6,16,20,14,29,13c44-8,127-63,164-13c9,13,5,22,24,21
			c13,0,24-9,35-15c12-7,25-11,38-10c24,1,12,6,16,20c8,25,85-19,108-21c-17-33-55,0-77-1c-17-1-18-13-6-21c11-8,28-6,38-17
			c-15-1-77,7-82-10c-5-20,60-26,72-33c9-5,18-15,14-27c-5-16-26-11-39-10c-29,4-56,9-85,1c-13-4-38-12-43-26c-7-19,18-25,32-28
			c26.042-5.58,52.673-4.716,79.064-7.112c14.035-1.274,52.399-2.711,53.932-22.864c0.798-10.491-4.601-9.931-13.293-11.246
			c-25.008-3.783-51.314-4.857-75.952-11.559c-12.647-3.439-70.42-11.947-54.064-35.468c7.916-11.384,27.345-14.728,39.513-18.699
			c7.458-2.435,23.579-6.938,26.746-14.82c-9.421-3.425-20.563,0.364-29.813-3.16c1.275-13.307,48.546-14.877,59.091-15.071
			c13.511-0.248,60.699-3.764,66.604-20c5.732-15.766-57.552-7.119-67.353-5.745c-26.973,3.78-56.412,11.124-83.417,4.499
			c24.782-10.017,57.144-5.104,83.938-6.953c8.193-0.565,30.813-2.052,36.367-9.801c5.818-8.118-5.935-8.454-12.541-8.801
			c-20.621-1.082-202.632,17.575-183.463-30c4.026-9.992,23.63-12.962,32.292-14.692c21.217-4.239,42.345-2.582,63.818-3.709
			c22.765-1.196,45.494-7.232,67.774-11.774c16.534-3.371,39.342-4.114,54.119-12.774c25.074-14.693-7.472-22.174-20.468-24.222
			c-30.568-4.818-57.739,3.053-88.093,5.771c-22.252,1.992-71.751,8.952-88.943-9.824c-19.975-21.814,31.118-26.862,42.361-26.97
			c17.463-0.167,34.836-0.492,52.274-0.98c11.316-0.317,34.104,0.957,43.762-6c9.452-6.809,2-7.705-6.536-9.749
			c-14.102-3.377-28.435-4.595-42.771-6.493c-8.817-1.167-58.585-1.919-58.794-17.781c-0.162-12.373,56.553-10.243,65.04-11.251
			c19.086-2.268,37.923-5.495,56.687-9.749c15.293-3.467,32.484-5.374,46.458-12.781c13.907-7.372,27.517-18.38,8.782-29.267
			c-11.657-6.774-30.12-5.47-43.073-5.975c-20.464-0.798-40.913,0.564-61.267,2.051c-33.519,2.449-70.186,5.457-102.53-6.009
			c-7.213-2.557-23.966-8.257-24.077-17.997c-0.122-10.844,20.18-13.493,27.853-14.071c25.936-1.954,65.353,3.769,88.109-10.903
			c-5.218-18.956-65.171-11.187-80.83-18.997c4.564-13.143,57.94-6.309,69.913-7.052c28.936-1.796,60.891-3.45,85.729-19.758
			c4.297-2.821,17.729-9.939,17.924-16.246c0.202-6.532-10.899-11.955-15.63-13.771c-26.363-10.12-58.076-1.202-84.158,4.856
			c-34.603,8.036-70.095,14.874-105.251,21.695c-29.437,5.712-70.095,11.738-98.682-1.222c-15.693-7.115-18.685-17.759-2.148-23.281
			c18.517-6.183,38.237-7.237,56.395-14.251c7.985-3.084,15.037-5.694,20.744-12.02c-7.712-6.62-30.212,1.915-38.92,4.267
			c-15.44,4.171-31.645,7.336-47.226,10.726c-7.109,1.546-28.549,5.928-35.045-0.199c-8.983-8.474,7.581-12.276,13.997-14.523
			C254.775,14.583,269.545,13.126,269.016,6.973z"/>
	</g>
</g>
<g id="Layer_7">
	<g opacity="0.5">
		<radialGradient id="SVGID_4_" cx="341.0049" cy="409.7305" r="327.0614" gradientUnits="userSpaceOnUse">
			<stop  offset="0" style="stop-color:#4EB6EA"/>
			<stop  offset="1" style="stop-color:#4EB6EA;stop-opacity:0"/>
		</radialGradient>
		<path fill="url(#SVGID_4_)" d="M279,37c-6,9-23,11-18,27c1,4,11,3,12,9c0,5-8,7-11,11c-6,8-16,16-21,25
			c-11.997,19.994-3.005,39.988-1.002,59.982c0.941,9.39-5.008,16.814-6.553,25.655c-2.126,12.173,3.511,15.385,11.04,23.654
			c25.961,28.514-35.248,21.601-18.831,44.417c4.473,6.215,11.455,8.881,9.255,18.105c-1.854,7.779-11.677,13.001-16.481,19.02
			c-10.174,12.746-14.831,29.703-0.48,41.413c12.606,10.287,34.656,37.677,12.853,49.503c-26.906,14.594-64.65,4.983-88.976,23.303
			c-11.862,8.934-18.488,25.724-12.403,39.92c6.997,16.323,34.629,31.587,50.663,37.053c13.694,4.665,36.79,4.879,45.261,18.532
			c6.656,10.727,8.734,42.272,2.702,53.491c-4.022,7.48-18.303,9.356-26.271,10.952c-17.652,3.534-44.012,10.308-48.745,31
			c-2.532,11.069,11.021,14.292,8.016,23.996c-2.152,6.948-16.081,10.182-22.299,11.785c-14.466,3.73-58.069,3.362-61.523,21.973
			c-4.947,26.652,50.808,44.752,68.829,50.051c26.504,7.792,62.606,5.956,86.973-6.75c21.162-11.033,51.871-21.946,75.991-16.277
			c9.751,2.292,20.579,4.209,29.035,10.171c10.587,7.463,17.674,16.772,32.164,17.052c15.527,0.299,20.448-9.824,31.733-17.052
			c6.751-4.323,19.931-6.203,28.037-5.945c15.778,0.504,20.597,11.617,15.229,26.32c-4.067,11.137-15.281,16.076-18.388,27.952
			c-8.237,31.489,20.365,36.492,43.373,27.976c11.015-4.077,27.864-10.854,39.797-8.025c12.063,2.859,16.755,17.081,25.954,20.571
			c9.026,3.426,21.54-7.331,29.32-10.823c5.354-2.404,10.076-4.674,15.951-4.997c5.878-0.323,11.693,4.412,16.755,4.047
			c14.349-1.036,3.816-11.33-3.954-10.826c-10.304,0.669-15.757,10.202-19.178-6.046c-4.627,0.642-13.59,4.74-17.119-0.881
			c-4.409-7.021,6.114-6.424,9.164-9.071c-8.806-1.651-19.115,3.025-17.742-11.048c0.91,0.143,2.711,0.022,3.675,0.022
			c3.548,10.459,23.419-3.975,8.174-10.448c-10.002-4.247-22.475,6.192-25.195-10.622c-5.996,5.141-1.804,15.915-3.805,22.896
			c-3.713,12.958-15.018,4.928-22.223-2.028c-8.774-8.473-8.005-9.351-18.479-6.725c-7.94,1.991-22.151,2.72-20.292-11.247
			c1.802-13.532,12.042-1.807,19.068-7.925c8.701-7.577-9.582-12.418-7.091-21.071c3.599-12.508,13.489,5.801,17.964,7.741
			c9.747,4.229,13.923-0.799,14.052-8.722c0.188-11.488-4.734-10.87,7.004-16.246c9.253-4.237,14.918-9.654,10.267-20
			c-4.681-10.412-17.674-9.723-19.322-21.777c-1.622-11.863,8.643-14.231,16.048-21.223c15.05-14.206,35.945-24.771,37.98-48.801
			c1.129-13.322-3.028-27.638-12.879-37.751c-10.87-11.159-30.107-13.038-42.823-21.425c-12.905-8.512-21.863-15.493-13.021-30.749
			c8.695-15.005,22.399-27.731,30.264-43.052c8.847-17.235-2.052-18.976-16.517-22.223c-17.742-3.982-7.718-12.989-2.171-25.804
			c3.071-7.094,5.644-12.707,9.219-19.196c2.604-4.724,5.997-10.07,5.948-15.551c-0.104-11.791-13.213-16.873-11.797-30.172
			c1.621-15.233,17.065-25.291,15.85-41.301c-0.922-12.143-9.946-27.728-20.337-34.325c-10.854-6.891-23.483-8.978-36.021-10.44
			c-15.094-1.761-42.147-5.061-55.009-14.22c-17.542-12.493-9.112-33.819-18.683-48.887c-4.455-7.014-11.048-5.473-17.977-4.829
			c-23.331,2.17-37.662-11.471-52.047-28.071c-8.772-10.124-10.15-6.381-23.028-3.176c-10.148,2.526-23.975,5.605-26.971-6.804
			c-5.639-23.353,36.075-21.458,46.12-36.997c-6.511-7.273-19.354,0.755-27.12-3.758c-11.311-6.573,0.98-13.549,2.888-21.071
			c-5.954-2.245-23.045,3.275-25.71-6.178c-2.26-8.014,10.43-12.649,15.491-15.048c-3.051,0.412-6.323-0.254-9.295-0.1
			c2.349-3.729,5.476-5.554,6.521-9.697c-6.251-1.396-9.543,3.164-6.853,8.55c-1.354-3.473-2.892-7.023-4.02-10.701"/>
	</g>
	<g opacity="0.5">
		<g>
			<path fill="#4EB6EA" d="M257,218c2.58,0,2.58-4,0-4S254.42,218,257,218L257,218z"/>
		</g>
	</g>
</g>
<g id="Layer_10">
</g>
<g id="Layer_4">
	<g>
		<path fill="#D3CDA5" d="M403,704.334c-2.04-1.53-3.406-3.999-5.721-5.176c-3.071-1.563-4.491,0.104-6.986,1.758
			c-5.156,3.417-9.483,6.613-5.598,12.89c1.885,3.045,3.843,7.372,6.923,9.377c2.661,1.732,6.187,2.924,9.05,4.485
			c3.667,1.999,7.666,3.333,10.999,5.666c3.333,2,6,5,9,7.333c11,7.334,26,9.334,39,6.667c0-8.667-11-16.333-18-19.667
			c-9.333-4.333-18-9-26.333-14.666C411.334,710.334,406.667,707.334,403,704.334z"/>
	</g>
	<g>
		<path fill="#D3CDA5" d="M396.667,705.001c2.333,6.666,8.667,12.666,14.667,16c8,5,15,9.333,22.333,14.666
			C446,744.667,462,755.001,478,755.001c7.334,0,15.667-1,23-2.667c4.667-1,5.667-1.667,5-7c-0.666-4.667-2.333-6.667-6.333-8.667
			c-6-3.333-14.667-4.666-21.333-6c-3.334-0.666-8-1.333-10.667-3.666c-3.333-2.334-3.667-6-6.667-9c-4.333-4-11.333-4-16.666-4.667
			c-2.667-0.333-5.667,0.333-8.334-0.667c-1.903-0.952-3.007-3.384-4.801-4.209c-1.476-0.678-3.528,0.87-4.616,0.025
			c-0.827-0.643-1.247-6.068-1.494-7.313c-0.916-4.603,0.21-14.132-5.755-15.837c-3-0.667-10.667,7.667-13,9.333
			c-3.667,3-7,6.334-10.667,9.334c0.667,1.666,1.667,3.333,3,4.333c0,0.667-0.667,0.333-1,0.667"/>
	</g>
	<g>
		<g>
			<path fill="#D3CDA5" d="M366.334,575.5c3.225,0,3.225-5,0-5S363.109,575.5,366.334,575.5L366.334,575.5z"/>
		</g>
	</g>
	<g>
		<path fill="#D3CDA5" d="M331.795,432.687c-1.041-4.704-1.051-9.503,0.875-14.319c1.432-3.581,2.313-7.201,3.644-10.803
			c2.778-7.528,3.922-16.703-1.24-23.57c-5.879-7.821-16.837-12.282-26.505-10.806c-9.443,1.442-15.402,10.341-18.086,19.055
			c-1.174,3.81-1.46,7.895-2.192,11.832c-0.901,4.852-1.246,9.785-1.127,14.717c0.078,3.239-0.081,6.958,0.667,10.135
			c0.703,2.984,2.076,7.093,4.256,9.163c2.094,1.988,1.833,1.876,4.345,1.643c0.964-1.357,2.66-2,3.892-3.077
			c1.371-1.198,2.285-2.442,4.092-2.996c2.509-0.77,5.12-0.396,6.514,1.994c1.727,2.963,1.759,7.485,1.99,10.819
			c0.27,3.885,0.092,7.752-0.613,11.584c-0.503,2.734-0.342,4.032,2.252,5.195c2.327,1.043,5.156,2.063,7.692,2.492
			c6.028,1.017,11.994-1.646,15.862-6.078c1.742-1.996,4.066-3.091,3.326-5.652c-0.466-1.608-1.993-2.941-2.742-4.418
			C335.959,444.199,333.086,438.516,331.795,432.687z"/>
	</g>
	<g>
		<path fill="#D3CDA5" d="M292.998,537.263c0.765-1.545-0.195-2.646-0.614-4.079c-0.48-1.645-0.021-3.223,0.008-4.932
			c0.078-4.488-0.84-8.945-1.883-13.288c-1.325-5.512-1.918-10.987-2.37-16.635c-0.428-5.35-0.782-10.56-0.803-15.921
			c-0.018-4.591,1.806-8.822,3.476-13.097c2.545-6.513,7.829-11.899,10.71-17.974c-4.114,3.585-9.958,3.523-14.232,6.544
			c-4.383,3.098-7.901,7.919-7.957,13.445c-0.174,17.158,3.103,37.819-6.918,52.746c-1.649,2.455-3.801,4.03-5.748,6.268
			c-3.115,3.58-6.169,8.141-7.417,12.733c-2.176,8.005,0.665,16.638-1.38,24.716c-1.984,7.838-11.326,16.966-19.881,14.462
			c-3.007-0.88-3.497-0.99-5.656,0.489c-1.675,1.147-1.677,1.944-4.074,2.333c-3.162,0.513-5.516,0.017-8.411,1.168
			c-2.518,1.002-5.049,1.085-7.659,1.695c-1.662,0.388-3.691,0.312-5.195,1.111c-1.13,0.6-1.459,1.617-2.494,2.27
			c-3.565,2.25-9.022,3.341-13.212,3.72c-1.069,4.254,4.696,4.41,7.157,3.906c2.648-0.543,8.685-2.076,10.882-0.189
			c-0.245,0.207-5.459,3.409-4.976,3.75c2.273,1.601,5.874,0.586,8.455,0.177c4.365-0.693,8.67-2.732,13.014-2.464
			c2.097,0.13,4.3-0.304,6.275,0.078c1.501,0.29,1.526,1.061,3.347,0.646c0.645-0.147,6.679-2.413,6.782-2.654
			c-1.336,3.119-7.342,3.799-10.03,5.257c-1.793,0.972-4.039,2.084-4.444,3.956c-0.176,0.812,0.049,3.972,0.669,4.512
			c1.314,1.144,3.698-1.291,4.945-2.005c2.926-1.676,6.032-2.04,9.273-2.813c2.442-0.582,6.115-0.652,8.375-1.688
			c3.018-1.384,3.956-6.022,6.423-8.205c1.584-1.4,3.92-2.249,4.829-4.289c1.018-2.293,2.129-4.819,3.912-6.708
			c4.435-4.699,8.538-9.975,13.08-14.872c4.327-4.665,6.545-9.157,8.443-15.237c1.478-4.73-1.144-9.65,1.233-14.189
			C289.916,540.127,292.184,538.906,292.998,537.263z"/>
	</g>
	<g opacity="0.5">
		<radialGradient id="SVGID_5_" cx="369.6055" cy="583.4033" r="133.7887" gradientUnits="userSpaceOnUse">
			<stop  offset="0" style="stop-color:#F7F48F"/>
			<stop  offset="1" style="stop-color:#EDE4B7;stop-opacity:0"/>
		</radialGradient>
		<path fill="url(#SVGID_5_)" d="M357.546,562.402c3.374,2.654,12.108,4.523,15.113,6.006c5.136,2.532,9.001,6.941,13.185,10.775
			c10.001,9.164,22.145,15.596,34.377,21.086c9.329,4.186,20.283,8.982,30.512,10.063c9.384,0.99,32.796-4.227,38.877,5.656
			c5.893,9.576-5.673,18.744-9.545,26.41c0.802,0.228,1.444,1.002,2.349,1.188c0.966,5.198-2.999,8.802-6.277,12.265
			c-5.616,5.93-11.485,11.919-18.138,16.533c-7.183,4.982-17.529,6.804-25.522,10.215c-8.738,3.73-16.926,8.436-23.983,15.012
			c-10.558,9.837-17.56,22.465-30.977,28.874c-13.901,6.642-10.193-6.227-12.543-14.985c-2.049-7.636-14.114-12.843-20.973-15.973
			c-9.073-4.141-16.224-11.315-24.91-15.726c-3.318-1.684-7.357-1.578-10.886-3.254c-3.88-1.843-7.35-4.414-10.998-6.655
			c-10.468-6.431-19.962-13.558-29.708-20.866c-8.7-6.523-16.776-15.096-18.822-26.153c-2.066-11.165,0.386-20.92,6.582-30.272
			c6.456-9.745,14.494-16.239,24.974-21.193c3.342-1.579,6.604-3.32,10.09-4.49c3.53-1.185,8.223-2.034,9.012-6.253
			c0.932-4.98,0.343-9.714-1.773-14.146c-1.524-3.192-2.15-6.648-3-10.058c-1.325-5.312-3.899-10.323-5.631-15.5
			c-3.41-10.186-7.13-18.995-6.597-29.963c0.33-6.781-0.072-14.157,1.576-20.73c5.517-21.991,30.291-33.223,51.243-31.633
			c12.239,0.93,24.036,5.884,33.348,13.865c3.5,3,12.5,10,13.5,14.001c0.865,3.895-1.396,8.579-2.589,12.186
			c-1.547,4.674-2.254,9.363-3.278,14.175c-1.941,9.116-3.736,18.899-7.055,27.617c-3.157,8.297-7.847,15.599-9.827,24.513
			c-0.778,3.5-4.542,12.892-2.821,16.166C356.657,561.591,357.042,562.005,357.546,562.402z"/>
	</g>
	<g>
		<path fill="#1B283F" d="M305.14,413.389c-1.952,8.82-2.136,18.321,0.758,26.96c0.585,1.747,1.644,3.153,2.235,4.857
			c0.52,1.499,1.016,2.988,1.678,4.435c1.33,2.906,3.113,5.895,5.763,7.783c1.743,1.243,3.819,1.856,5.955,1.514
			c6.163-0.99,10.877-6.044,15.1-10.178c1.896-1.856,3.629-2.82,5.72-0.731c0.559,0.559,0.842,1.613,1.904,1.228
			c0.628-0.228,0.843-1.359,0.894-1.983c0.073,0.013,0.191-0.054,0.239-0.101c-0.278,3.027,2.603,5.927,5.249,6.781
			c-0.006-0.988-0.402-1.926-0.231-2.915c0.357,0.864,0.397,1.957,0.348,2.925c-0.068,1.328-0.598,2.086-0.856,3.274
			c1.902-0.798,5.043-2.782,5.953-4.737c0.364-0.782,0.183-2.161,0.741-2.784c0.691-0.771,2.042-0.415,2.916-0.338
			c2.515,0.221,4.858,0.985,6.749,2.747c1.802,1.68,3.584,2.653,5.625,3.878c1.544,0.927,3.396,2.208,3.476-0.372
			c0.17-5.572-1.671-11.996-4.353-16.825c-1.031-1.858-2.635-3.478-3.465-5.432c-0.522-1.23-0.488-2.561-1.167-3.736
			c-1.471-2.548-4.903-4.152-7.404-5.442c-4.797-2.474-11.454-4.705-12.715-10.695c-1.25-5.75,2-11.25,1.5-16.5
			c-1-10-13.5-11.5-21.25-12.75c-5.5-0.75-10.25-1.5-15.5-4c-3.484-1.64-9.87-6.475-13.981-5.161
			c-1.968,0.629-4.272,3.663-5.611,5.187c-1.76,2.004-3.266,4.212-4.501,6.576c-0.792,1.514-2.664,4.348,0.262,4.196
			c2.415-0.125,5.351-2.684,6.64-4.655c-0.553,1.03-1.012,4.871,0.063,5.736c1.401,1.128,4.805-1.796,4.462-3.412
			c0.064,1.091-1.609,3.44-1.299,4.12c0.452,0.99,3.775-0.756,4.512-1.125c1.232-0.617,2.433-1.502,3.829-0.758
			c3.805,2.032,3.06,5.861,2.758,9.357C307.744,404.8,306.106,409.021,305.14,413.389z"/>
	</g>
	<g>
		<path fill="#D3CDA5" d="M360.513,571.87c-6.335-1.202-12.314-5.758-15.313-11.178c-2.387-4.314-2.858-9.124-0.799-13.653
			c2.789-6.134,5.845-10.315,6.85-17.221c1.211-8.316,0.486-17.442,3.438-25.324c0.882-2.357,1.582-4.626,3.307-6.493
			c1.766-1.912,2.343-3.452,2.808-5.969c0.473-2.553-0.551-5.108-0.271-7.661c0.455-4.15,1.135-7.641,2.485-11.648
			c1.429-4.239,3.938-7.807,5.834-11.846c0.71-1.513,2.59-3.196,2.794-4.858c1.563-0.006,2.507,1.325,3.664,2.135
			c1.102,0.771,2.188,1.421,3.203,2.358c1.792,1.655,3.257,3.654,5.067,5.278c3.758,3.37,7.221,8.082,5.856,13.408
			c-2.438,9.518-6.548,18.105-6.14,27.913c0.262,6.273-0.652,12.688-2.59,18.657c-1.563,4.819-5.97,8.349-7.088,13.345
			c-0.832,3.727,1.902,6.95,3.263,10.214c1.618,3.886,2.393,7.798,1.111,11.915c-1.302,4.185-3.625,7.426-7.658,9.424
			C367.211,572.212,363.813,572.496,360.513,571.87z"/>
	</g>
	<g>
		<g>
			<path fill="#D3CDA5" d="M365,562.5c3.225,0,3.225-5,0-5S361.775,562.5,365,562.5L365,562.5z"/>
		</g>
	</g>
	<g>
		<path fill="#D3CDA5" d="M326.644,556.019c-0.04,0.793-0.691,7.981,0.023,7.981c0.333,0,3,3,3.333,3.334c1.333,1.666,2,4.666,4,6
			c6,4,14.667-1,21-0.667c3.795,0,10.136,5.032,13.508,1.715c1.235-1.216,1.222-3.477,1.572-5.057
			c0.593-2.679,2.002-4.688,2.92-7.196c0.932-2.544-2.059-5.67-3.393-7.701c-1.864-2.838-4.565-5.206-7.17-7.341
			c-3.328-2.728-6.895-4.683-10.766-6.397c-2.752-1.22-4.984-3.368-7.756-4.553c-2.351-1.003-4.181-1.261-6.709-1.405
			c-0.041,1.182-0.65,2.424-0.863,3.638c-0.262,1.503,0.175,2.804-1.169,3.656c-1.083,0.687-2.478,0.745-3.709,0.843
			c-0.515,0.041-1.648,0.067-2.066,0.406c-1.046,0.852-1.12,3.274-1.364,4.479c-0.248,1.223-0.746,2.46-0.754,3.721
			C327.272,552.93,329.646,555.851,326.644,556.019z"/>
	</g>
	<g>
		<path fill="#F7F5E8" d="M207.266,384.093c-10.174,1.741-20.254,4.013-30.177,6.951c-7.776,2.302-16.465,4.623-23.9,7.925
			c-3.942,1.75-9.933,3.595-13.39,5.927c2.881-1.943,3.832-5.339,5.768-8.077c2.933-4.148,6.763-7.917,10.159-11.69
			c6.775-7.529,13.827-14.82,21.294-21.667c14.615-13.399,30.927-25.192,49.215-33.046c15.386-6.607,29.807-14.112,46.061-18.832
			c18.607-5.403,37.846-8.669,57.203-9.583c35.5-1.5,69,8.5,98,30c5.161,3.826,10.071,8.023,14.757,12.416
			c21.104,19.784,40.697,45.987,48.909,74.014c10.565,36.058,14.563,75.446,0.46,111.167c-3.905,9.892-6.96,20.111-11.522,29.708
			c-1.896,3.988-3.365,7.612-3.602,12.054c-0.01-8.684-0.386-17.241-0.891-25.834c-1.563-26.6-11.396-54.254-25.737-76.58
			c-8.934-13.908-21.026-25.857-33.558-36.548c-15.519-13.237-33.285-23.679-52.33-30.962
			c-18.832-7.201-36.938-13.461-56.873-17.056c-12.41-2.237-24.824-3.529-37.3-5.184c-10.883-1.443-21.667,0.666-32.688,1.238
			C227.146,380.951,217.107,382.408,207.266,384.093z"/>
	</g>
	<g>
		<g>
			<path fill="#F7F5E8" d="M360,398.5c3.225,0,3.225-5,0-5S356.775,398.5,360,398.5L360,398.5z"/>
		</g>
	</g>
	<g>
		<g>
			<path fill="#F7F5E8" d="M360,398.5c3.225,0,3.225-5,0-5S356.775,398.5,360,398.5L360,398.5z"/>
		</g>
	</g>
	<g opacity="0.5">
		<g>
			<radialGradient id="SVGID_6_" cx="446" cy="611.667" r="2.4593" gradientUnits="userSpaceOnUse">
				<stop  offset="0" style="stop-color:#F7F48F"/>
				<stop  offset="1" style="stop-color:#EDE4B7;stop-opacity:0"/>
			</radialGradient>
			<path fill="url(#SVGID_6_)" d="M446,614.167c3.225,0,3.225-5,0-5S442.775,614.167,446,614.167L446,614.167z"/>
		</g>
	</g>
	<g opacity="0.5">
		<radialGradient id="SVGID_7_" cx="449.834" cy="614.334" r="11.0908" gradientUnits="userSpaceOnUse">
			<stop  offset="0" style="stop-color:#F7F48F"/>
			<stop  offset="1" style="stop-color:#EDE4B7;stop-opacity:0"/>
		</radialGradient>
		<path fill="url(#SVGID_7_)" d="M448.334,609c2-2,3.666-4.333,6.333-5.333c0,2.333-1.333,5.333-0.333,7.666
			c1.333,3.667,4.333,2.334,7,4.667c-3,3-6.667,2.333-10.667,2.667c0.667,2,0.667,4.333-0.333,6.333
			c-1.667-1.667-2.334-3.667-3.334-5.667c-2,0-4,0.667-5.666,1.334c0.666-2,1.666-4,2.333-6c-2-1-4-2.667-5.333-4.667
			c2.333,0.333,4.333,1.667,6.333,2.667c-1-1.334-1.333-3.334-1.667-5.334c2,1.667,5.667,3.667,6,2.667"/>
	</g>
	<g opacity="0.5">
		<radialGradient id="SVGID_8_" cx="486.167" cy="626.833" r="16.7073" gradientUnits="userSpaceOnUse">
			<stop  offset="0" style="stop-color:#F7F48F"/>
			<stop  offset="1" style="stop-color:#EDE4B7;stop-opacity:0"/>
		</radialGradient>
		<path fill="url(#SVGID_8_)" d="M482,618.667c4.334-2,9.334-7,14-7.334c0.667,4.334-3,8.334-4.333,12c4,1,9.333,2.334,12.333,5.667
			c-4.666,0.667-9.333,1.667-14,2.333c1,3.667,2,7.334,1.667,11c-3-2-5-6.666-8-8.333c-3.667-2.333-4-0.333-7.333,2.333
			c0.666-1.666,3.333-8,2.333-9.666c-1-1.667-8.333-2.334-10.333-3.334c2.333-2.666,12.333-5,15-5"/>
	</g>
	<g opacity="0.5">
		<radialGradient id="SVGID_9_" cx="480.9521" cy="652.625" r="7.8044" gradientUnits="userSpaceOnUse">
			<stop  offset="0" style="stop-color:#F7F48F"/>
			<stop  offset="1" style="stop-color:#EDE4B7;stop-opacity:0"/>
		</radialGradient>
		<path fill="url(#SVGID_9_)" d="M476,652.333c-1,0.334-2.333,1-3.333,1.667c4,1.333,2,4,2.667,4.667c1.666,1.333,3,2.333,5.333-1
			c2.333,5.333,4-0.667,3.667-3.334c1.333,1,6,1.667,4.666-1.333c-0.333-1-5.333-2.333-6.666-2.667c1.333-1.333,2-3,2-5
			c-2.667,0.334-4,3-5.667,5c-1.333-2-3.333-2.666-5.667-3.666c0.667,2.333,7,7,6,5.333"/>
	</g>
	<g opacity="0.5">
		<radialGradient id="SVGID_10_" cx="456.667" cy="677.667" r="12.3515" gradientUnits="userSpaceOnUse">
			<stop  offset="0" style="stop-color:#F7F48F"/>
			<stop  offset="1" style="stop-color:#EDE4B7;stop-opacity:0"/>
		</radialGradient>
		<path fill="url(#SVGID_10_)" d="M454.334,678c-3-2-6-8.667-5.667-13.333c3.667,1.666,6.333,7,9.667,8c3.333,1,6-1.334,9.333-1.334
			c-0.667,3-3.333,5-5,7.667c2.333,1.333,4.333,3,5.667,5c-2.334,1.333-5.667,0.333-8-1.667c0,2.667-0.667,6-2.334,8.334
			c-1.666-1.667-2.333-4.334-2.666-6.667c-3,0.667-7.667,0.333-10.334-1c3.334-2,7-2.667,10.334-4.333l0,0
			C455,678.333,455,678,454.667,677.333"/>
	</g>
	<g opacity="0.5">
		<radialGradient id="SVGID_11_" cx="484.1963" cy="665.6875" r="2.3149" gradientUnits="userSpaceOnUse">
			<stop  offset="0" style="stop-color:#F7F48F"/>
			<stop  offset="1" style="stop-color:#EDE4B7;stop-opacity:0"/>
		</radialGradient>
		<path fill="url(#SVGID_11_)" d="M482.179,664.3c-1.529,2.599,2.481,5.036,4.069,2.743
			C487.704,664.939,483.592,661.896,482.179,664.3z"/>
	</g>
	<g opacity="0.5">
		<radialGradient id="SVGID_12_" cx="436.168" cy="685.5723" r="4.2697" gradientUnits="userSpaceOnUse">
			<stop  offset="0" style="stop-color:#F7F48F"/>
			<stop  offset="1" style="stop-color:#EDE4B7;stop-opacity:0"/>
		</radialGradient>
		<path fill="url(#SVGID_12_)" d="M436.667,681c-8-1-3.667,13.333,2,8c2.667-2.667,1.333-9.333-2.667-6.667"/>
	</g>
	<g opacity="0.5">
		<radialGradient id="SVGID_13_" cx="458.8398" cy="706.2109" r="3.5516" gradientUnits="userSpaceOnUse">
			<stop  offset="0" style="stop-color:#F7F48F"/>
			<stop  offset="1" style="stop-color:#EDE4B7;stop-opacity:0"/>
		</radialGradient>
		<path fill="url(#SVGID_13_)" d="M457.667,704c-5.333,1.667,0.667,9.667,4,4c2-3.667-3-7.333-3.667-4.667"/>
	</g>
	<g opacity="0.5">
		<radialGradient id="SVGID_14_" cx="470.8291" cy="607.3223" r="5.6181" gradientUnits="userSpaceOnUse">
			<stop  offset="0" style="stop-color:#F7F48F"/>
			<stop  offset="1" style="stop-color:#EDE4B7;stop-opacity:0"/>
		</radialGradient>
		<path fill="url(#SVGID_14_)" d="M469.334,602c-8.334-2-3.334,17,5.333,8.667c4.667-4.334,0-8-5-8"/>
	</g>
	<g opacity="0.5">
		<radialGradient id="SVGID_15_" cx="511.9336" cy="621.3867" r="2.4108" gradientUnits="userSpaceOnUse">
			<stop  offset="0" style="stop-color:#F7F48F"/>
			<stop  offset="1" style="stop-color:#EDE4B7;stop-opacity:0"/>
		</radialGradient>
		<path fill="url(#SVGID_15_)" d="M511.334,619c-5.667,2.333,3.666,8,3,2.333c0-1.666-3-2-3.334-2.333"/>
	</g>
	<g opacity="0.5">
		<radialGradient id="SVGID_16_" cx="451.3359" cy="590.5459" r="2.1938" gradientUnits="userSpaceOnUse">
			<stop  offset="0" style="stop-color:#F7F48F"/>
			<stop  offset="1" style="stop-color:#EDE4B7;stop-opacity:0"/>
		</radialGradient>
		<path fill="url(#SVGID_16_)" d="M450,589.333c-0.333,0.667-0.666,2-1,2.667c7,2.667,5-4.667,1.334-3.333"/>
	</g>
	<g opacity="0.5">
		<radialGradient id="SVGID_17_" cx="462.5" cy="663.584" r="10.8877" gradientUnits="userSpaceOnUse">
			<stop  offset="0" style="stop-color:#F7F48F"/>
			<stop  offset="1" style="stop-color:#EDE4B7;stop-opacity:0"/>
		</radialGradient>
		<path fill="url(#SVGID_17_)" d="M461.5,663.333c-1-3.333-2.333-7.166-3.167-10.666c3,1,4.334,4.666,6.834,5.666
			c2.333,1,4.833-1.5,7.333-1c-0.167,2.167-4,3.834-3.667,5.834c0.167,1.333,6.334,4.833,4,6.5c-1.666,1.166-5-2.667-6.833-1.667
			c-1.833,1.167-0.833,5.333-3.667,6.5c-1-1.667-0.666-5-2-6.333c-1.666-1.5-5-0.167-7.166-1c-3.667-1.334,0.166-2.167,2.166-3.334
			c1.5-0.833,2.834-2,4.5-2.5"/>
	</g>
	<g opacity="0.5">
		<g>
			<radialGradient id="SVGID_18_" cx="494.332" cy="649.333" r="2.4598" gradientUnits="userSpaceOnUse">
				<stop  offset="0" style="stop-color:#F7F48F"/>
				<stop  offset="1" style="stop-color:#EDE4B7;stop-opacity:0"/>
			</radialGradient>
			<path fill="url(#SVGID_18_)" d="M494.333,651.833c3.225,0,3.225-5,0-5S491.108,651.833,494.333,651.833L494.333,651.833z"/>
		</g>
	</g>
	<g opacity="0.5">
		<g>
			<radialGradient id="SVGID_19_" cx="495.2422" cy="649.8867" r="7.7843" gradientUnits="userSpaceOnUse">
				<stop  offset="0" style="stop-color:#F7F48F"/>
				<stop  offset="1" style="stop-color:#EDE4B7;stop-opacity:0"/>
			</radialGradient>
			<path fill="url(#SVGID_19_)" d="M496.744,649.998c0.647-1.987,0.433-3.984,0.834-6c-1.607,0-3.215,0-4.822,0
				c1.277,3.771,3.521,4.823,7.246,5.413c-0.498-1.225-0.996-2.449-1.494-3.673c-0.4,0.857-0.895,1.379-1.608,1.994
				c-1.019,0.877-0.93,2.645,0,3.535c0.938,0.899,1.934,1.703,2.608,2.827c0.498-1.224,0.996-2.448,1.494-3.673
				c-1.217,0.212-2.47,0.062-3.67-0.166c-1.742-0.329-3.729,1.128-3.076,3.076c0.329,0.98-0.457,2.22-0.667,3.17
				c1.394-0.367,2.786-0.735,4.179-1.103c-0.791-0.945-1.283-2.126-1.941-3.161c-0.597-0.938-1.721-1.474-2.824-1.149
				c-1.003,0.296-1.625,0.213-2.401-0.523c-0.169,1.309-0.337,2.617-0.506,3.927c0.545-0.373,1.064-0.77,1.587-1.173
				c0.478-0.369,2.225-1.099,1.32-1.241c3.153,0.497,4.508-4.32,1.33-4.822c-2.837-0.447-4.576,1.425-6.761,2.918
				c-1.289,0.882-1.742,2.754-0.506,3.927c2.036,1.933,4.554,2.608,7.267,1.811c-0.941-0.384-1.883-0.767-2.824-1.149
				c0.906,1.424,1.636,2.871,2.725,4.173c1.193,1.427,3.793,0.644,4.179-1.103c0.46-2.09,1.392-3.666,0.667-5.83
				c-1.025,1.025-2.051,2.051-3.076,3.076c2.139,0.404,4.179,0.539,6.33,0.166c1.604-0.279,2.266-2.387,1.494-3.673
				c-0.905-1.507-2.134-2.634-3.392-3.839c0,1.179,0,2.356,0,3.535c1.014-0.873,1.821-1.788,2.392-3.006
				c0.612-1.31,0.23-3.399-1.494-3.673c-1.762-0.278-3.129-0.072-3.754-1.921c-0.735-2.17-4.307-2.593-4.822,0
				c-0.396,1.995-0.201,4.063-0.834,6C490.919,651.742,495.748,653.049,496.744,649.998L496.744,649.998z"/>
		</g>
	</g>
	<g opacity="0.5">
		<radialGradient id="SVGID_20_" cx="480.6094" cy="681.6279" r="2.6167" gradientUnits="userSpaceOnUse">
			<stop  offset="0" style="stop-color:#F7F48F"/>
			<stop  offset="1" style="stop-color:#EDE4B7;stop-opacity:0"/>
		</radialGradient>
		<path fill="url(#SVGID_20_)" d="M478.167,680.333c0.166,1.834,3.833,6.5,4.833,2.5c0.5-1.833-2.667-5-4.333-3.666
			c0,0.333,0.166,0.166,0.333,0.5"/>
	</g>
	<g opacity="0.5">
		<radialGradient id="SVGID_21_" cx="495.9063" cy="601.3057" r="1.6074" gradientUnits="userSpaceOnUse">
			<stop  offset="0" style="stop-color:#F7F48F"/>
			<stop  offset="1" style="stop-color:#EDE4B7;stop-opacity:0"/>
		</radialGradient>
		<path fill="url(#SVGID_21_)" d="M495.333,599.841c-3.166,1.333,1,4.333,2.167,2.166c0.667-1.333-1.167-1.666-1.667-1.5"/>
	</g>
	<g opacity="0.5">
		<radialGradient id="SVGID_22_" cx="509.75" cy="638.25" r="7.1786" gradientUnits="userSpaceOnUse">
			<stop  offset="0" style="stop-color:#F7F48F"/>
			<stop  offset="1" style="stop-color:#EDE4B7;stop-opacity:0"/>
		</radialGradient>
		<path fill="url(#SVGID_22_)" d="M507.5,636.333c1.333-1.333,2.833-4.5,4.833-4.833c0.167,1.5-0.333,3.833,0.5,4.833
			c0.834,1,3.5,1.667,4.5,2.5c-1.333,0.667-4.333,0-5.166,1c-0.834,1.167,0.166,3.834-0.5,5.167c-1.5-0.833-2.334-3.5-3.834-4
			c-1.166-0.5-3.5,0.5-5,0.167c0.667-1.5,2.667-2.167,3.667-3.334c-1.5-1.666-3.167-3-4.333-4.833c2,0,4.333,0.667,6.5,0.833"/>
	</g>
	<g opacity="0.5">
		<radialGradient id="SVGID_23_" cx="526.9043" cy="624.6172" r="6.1903" gradientUnits="userSpaceOnUse">
			<stop  offset="0" style="stop-color:#F7F48F"/>
			<stop  offset="1" style="stop-color:#EDE4B7;stop-opacity:0"/>
		</radialGradient>
		<path fill="url(#SVGID_23_)" d="M526.333,621c1.334-0.833,1.334-2.333,2.834-1.833c0.5,0.333,1,2.166,1.5,2.5
			c0.666,0.333,2.833,0,3,1c0.166,1-2.334,1.833-3.167,2.166c2,2.167-0.167,4.667-1.167,1.5c-0.833,1.5-2.666,2-3.333,3.834
			c-0.167-1.167-0.167-2.5-0.167-3.667c-1-0.167-5.166,0.333-5.666-1c-0.5-1.167,4.833-2.833,6-3.5c0.333,0.333,0,0.167-0.167,0"/>
	</g>
	<g opacity="0.5">
		<radialGradient id="SVGID_24_" cx="527.9746" cy="647.4805" r="2.3233" gradientUnits="userSpaceOnUse">
			<stop  offset="0" style="stop-color:#F7F48F"/>
			<stop  offset="1" style="stop-color:#EDE4B7;stop-opacity:0"/>
		</radialGradient>
		<path fill="url(#SVGID_24_)" d="M525.833,647.667c-0.833,3.5,4,2.5,4.334-0.5c0.5-4-3.334-1.5-3.667,1.166"/>
	</g>
	<g opacity="0.5">
		<radialGradient id="SVGID_25_" cx="541.666" cy="623.2441" r="1.0798" gradientUnits="userSpaceOnUse">
			<stop  offset="0" style="stop-color:#F7F48F"/>
			<stop  offset="1" style="stop-color:#EDE4B7;stop-opacity:0"/>
		</radialGradient>
		<path fill="url(#SVGID_25_)" d="M540.333,622.667c0.167,1.666,1.834,1.666,2.667,0.5c-0.5-0.667-1.833-0.667-2-0.667"/>
	</g>
	<g opacity="0.5">
		<radialGradient id="SVGID_26_" cx="469" cy="637.875" r="10.4526" gradientUnits="userSpaceOnUse">
			<stop  offset="0" style="stop-color:#F7F48F"/>
			<stop  offset="1" style="stop-color:#EDE4B7;stop-opacity:0"/>
		</radialGradient>
		<path fill="url(#SVGID_26_)" d="M467.75,634c0.5-2,0.75-4,1-6c1.5,1.25,2.5,4.25,4.5,5c1,0.25,4.25-1,6-1
			c-0.5,2.25-2.5,4.25-4.25,5.75c2.25,0,4.5,1.5,5,3.5c-1.75,0.75-4.25-0.5-6.25-1.25c0,2.5,0.75,5.25,0.5,7.75
			c-5.25-9.75-6.75-3-14.5-2.25c1-1.25,4-4.25,3.75-6.25c-0.25-2.25-4.5-4.5-5.5-6.5C461,632.25,465.75,634.5,467.75,634"/>
	</g>
</g>
<g id="Layer_9">
</g>
<g id="Layer_5">
	<g>
		<path fill="#A7DAEA" d="M285.357,89.339c1.992-4.709-2.972-0.461-3.699,1.376C279.879,95.216,284.569,91.202,285.357,89.339z"/>
	</g>
	<g>
		<path fill="#A7DAEA" d="M277,97"/>
	</g>
	<g>
		<path fill="#A7DAEA" d="M305.629,125.542c0.169,1.46,1.213,3.568,2.272,4.524c1.842-1.923,4.667-3.145,4.298-6.165
			c-0.297-2.416-3.074-5.518-5.344-3.064C305.758,122.022,305.455,124.001,305.629,125.542z"/>
	</g>
	<g>
		<path fill="#A7DAEA" d="M301,148.667c-10.333-1.667-6.333,20,3,11.333c3.667-3.333,3-12-3.333-11.333"/>
	</g>
	<g>
		<path fill="#A7DAEA" d="M332.334,125.667C326.334,136,344.667,126,334,125"/>
	</g>
	<g>
		<path fill="#A7DAEA" d="M321.334,143"/>
	</g>
	<g>
		<path fill="#A7DAEA" d="M321.667,140"/>
	</g>
	<g>
		<path fill="#A7DAEA" d="M323.817,151.786c-1.953,1.584-2.901,4.757-5.329,5.606c-0.227-2.577,2.524-6.26,1.324-8.481
			c-0.242-0.448-3.872-2.895-4.209-2.668c1.339-0.981,3.425-0.29,4.904-0.647c0.08-1.905,0.434-3.808,0.516-5.698
			c-0.004,0.095,2.89,4.525,3.232,4.915c1.844,2.092,4.212,1.486,6.779,1.03c-0.867,1.59-2.261,3.622-4.004,4.212
			c1.491,1.732,3.662,3.468,2.175,5.918c-1.834-1.333-3.325-2.988-4.949-4.505C324.104,151.565,323.958,151.672,323.817,151.786z"/>
	</g>
	<g>
		<path fill="#A7DAEA" d="M336,138"/>
	</g>
	<g>
		<path fill="#A7DAEA" d="M349.407,172.901c-2.724,3.733-8.437-0.538-3.483-2.971C348.426,168.701,351.566,169.942,349.407,172.901z
			"/>
	</g>
	<g>
		<path fill="#F2F2A2" d="M308.667,184.333c2-1.667,3.667-3.667,5.667-5C316,184,314,187.667,319.667,189.667
			c-1.667-0.333-3.333,0-5,0C314,191.333,314,193.333,314,195.333c-1-1.333-2.333-3-3.333-4.333c-0.333,1.667-2,3.333-4,4
			c0.333-1.667,0.333-3.667,0.667-5c-2.667-0.667-5-2.333-6.334-4.333C303.667,185.333,306,185,308.667,184.333
			c0.333,0.333,0.667,0.667,0,0.333"/>
	</g>
	<g>
		<path fill="#A7DAEA" d="M267.15,178.905c2.453,1.631,7.354-1.92,4.49-4.237C269.768,173.154,264.495,177.14,267.15,178.905z"/>
	</g>
	<g>
		<path fill="#A7DAEA" d="M226,248.667c-9.333-2,1,11,4,4c1-2.667-2.333-4.667-3.667-3.667"/>
	</g>
	<g>
		<path fill="#A7DAEA" d="M372.667,183"/>
	</g>
	<g>
		<path fill="#A7DAEA" d="M391.667,183.333c-0.946-0.406-4.609,5.664-4.697,6.799c-0.263,3.407,3.026,4.731,4.331,7.474
			c-3.431-0.785-5.394-1.513-7.366-4.572c-2.567,1.744-1.668,10.068-4.535,10.922c-0.729-2.741-1.173-5.544-1.75-8.29
			c-0.8-3.811-1.28-3.274-5.315-2.092c-2.169,0.635-7.336,3.275-5.674-0.826c1.022-2.521,4.836-2.736,6.899-3.407
			c-2.686-1.159-8.199-5.882-7.907-9.082c3.543,1.56,5.35,3.001,8.065-0.142c0.743-0.86,5.175-7.558,4.616-8.452
			c1.666,2.667,2.666,7.667,5.333,9.667C386,183,389.334,182.333,391.667,183.333z"/>
	</g>
	<g>
		<path fill="#A7DAEA" d="M384,197.667"/>
	</g>
	<g>
		<path fill="#A7DAEA" d="M320,226"/>
	</g>
	<g>
		<path fill="#A7DAEA" d="M318.667,226.333c-6,2,1.333,9,4.667,5.333c2-2.333,0.333-6.333-2.667-5.333"/>
	</g>
	<g>
		<path fill="#A7DAEA" d="M293.667,204.333c-2.333,5.667,4.333,4.667,1.667,0"/>
	</g>
	<g>
		<path fill="#A7DAEA" d="M348.144,221.224c2.286-1.477,0.152-4.009-1.899-4.224C345.555,216.927,344.175,223.786,348.144,221.224z"
			/>
	</g>
	<g>
		<path fill="#A7DAEA" d="M321.677,272.137c1.564,1.333,5.547-2.897,2.025-3.438C322.119,268.456,320.229,270.903,321.677,272.137z"
			/>
	</g>
	<g>
		<path fill="#A7DAEA" d="M267.817,314.098c1.467,1.448,4.423,1.211,5.726-0.363c0.689-0.832,2.774-3.159,1.942-4.394
			c-0.669-0.993-2.652-0.706-3.611-0.538C269.562,309.208,265.01,311.328,267.817,314.098z"/>
	</g>
	<g>
		<path fill="#A7DAEA" d="M348.334,288.667c-3,7,7.333,5,3-0.667c-0.334,0.333-2.667,1.667-2.334,1.333"/>
	</g>
	<g>
		<path fill="#F2F2A2" d="M277.25,131.75c0.75-1,1-2.25,1.5-3.75c0.25,4,2.5,3.5,4.25,6.25c-3,0.75-1.5,3.25-1,5.25
			c-1.5-0.25-2.75-1-3.5-2c-1.25,0.75-2,2.25-2.25,3.5c-1.25-4.25-1.75-3.25-5.5-5c1.25-0.75,3-1,4.5-1.25c-1.25-1.5-3-2.5-4-4
			c1.75,0.5,5,0.75,5.5,1.75"/>
	</g>
	<g>
		<path fill="#A7DAEA" d="M295,100.75"/>
	</g>
	<g>
		<path fill="#F2F2A2" d="M294.75,95.5c-1.376,0,0.073,4.941,2.407,3.61c2.253-1.284-0.38-4.49-2.657-3.11"/>
	</g>
	<g>
		<path fill="#A7DAEA" d="M384.25,225c-8,3.75,6.5,8.75,4.5,1.25c-0.5-2.25-3.5-2-4-1.75"/>
	</g>
	<g>
		<path fill="#F2F2A2" d="M415.5,242.75c1.25-2.25,2-5,3.25-7.25c1.5,2.5,1.5,5.5,2.5,8.25c2.75-0.5,5.75-0.75,8.25,0
			c-1.5,1-3.5,2-5,3.75c1.75,1.75,2.75,4.5,3.25,6.5c-8.5-5-4.5,1-7.5,6.25c-1.75-2-2.75-5.5-4.5-8c-1,3-5,2.5-7.5,2.5
			c2-1.75,3.25-4,5.5-6c-3,0-7-1.5-8.75-4.5c3-1,7.25,0,10.5,0c0,0.5-0.25-0.25-0.25-0.5"/>
	</g>
	<g>
		<path fill="#A7DAEA" d="M384,260.25"/>
	</g>
	<g>
		<path fill="#A7DAEA" d="M383.25,260.75c-0.5,0.5-0.75,0.75-1,1.5c1.5,1.25,3.25,0.75,3.75-1.25c-0.75-0.5-1.25-0.5-2-0.5"/>
	</g>
	<g>
		<path fill="#A7DAEA" d="M426.5,311.25"/>
	</g>
	<g>
		<path fill="#A7DAEA" d="M426.25,310.75c-5.25-4.5-2.5,8.75,2,4.75C430,314,427.5,311.5,426.25,310.75"/>
	</g>
	<g>
		<path fill="#F2F2A2" d="M400.25,321c1.25-1.75,2.25-3.5,3.75-5.25c0.5,1.25,0.75,3,1,4.25c1.75-0.25,3.75,0,5,1.25
			c-0.75,0.5-1.5,1.75-2.75,2.25c1,1,1.5,2.5,1.25,4c-1-0.75-2.25-1.25-3-2c0,1.25,0.25,3.25,0,4.5c-1-0.75-2-1.75-2.5-3
			c-1.5,1-3,1.75-4.75,2c0.25-1.5,1-2.75,1.5-4.25c-2-0.25-4.75,0.25-5.5-2c2.25-0.75,5.5-0.5,7-2.5"/>
	</g>
	<g>
		<path fill="#A7DAEA" d="M443,267.667"/>
	</g>
	<g>
		<path fill="#A7DAEA" d="M442.667,267.667C437,269.333,443,275,445,271.667c1-2.333-2-4-3-4"/>
	</g>
	<g>
		<path fill="#F2F2A2" d="M496,269.333c2.333-1.333,4.333-2.333,6.667-3c1,2.667-0.334,5.333-0.667,8
			c2.333,0.333,4.667,0,6.667,0.333c-1.667,1.667-4.334,3-5.334,5c-0.666,2.333,0.334,5.333,0,7.333c-1.666-1.333-3.333-3.333-5-5
			c-1.333,2.667-3.333,5-5.666,6.667c-0.667-3-0.667-6-0.667-9c-3.333,0-7.333-0.333-10.333-1.667c1.666-2.333,5-2.667,7.666-3
			c-0.666-3.667-3-7-4-10.333c3.667,1,9,6,11.667,7"/>
	</g>
	<g>
		<path fill="#A7DAEA" d="M524.667,334.667c0-2,0.666-3.667,1.333-5.333c3,9.333,5,5.667,12,9.333c-2,1.667-6,2.333-7,4.667
			c-0.333,1,0.667,4.667,0.333,6.333c-1.333-1.333-3-3-5-4c-1,2.333-2,4.333-3.666,6c-1-1.667-0.667-5.667-2-7c-1.667-2-4-1-6.334-2
			c1.334-1,3-2.333,4.667-3.333c-1.333-2.667-3-5-3.333-7.667c2,0.667,10,4.333,9,3.333"/>
	</g>
	<g>
		<path fill="#A7DAEA" d="M460,381.667"/>
	</g>
	<g>
		<path fill="#A7DAEA" d="M460.293,383.721c-0.697,3.188,6.119,4.832,5.396,1.485C465.258,383.206,461.076,380.137,460.293,383.721z
			"/>
	</g>
	<g>
		<path fill="#A7DAEA" d="M498,355.333c-3.387,5.268,7.605,4.94,0.5-0.833"/>
	</g>
	<g>
		<path fill="#A7DAEA" d="M498.211,394.076c-0.009,0.002-0.019,0.005-0.029,0.008c-1.187,0.336-3.26,1.48-0.994,1.986
			C499.798,396.653,499.232,393.802,498.211,394.076z"/>
	</g>
	<g>
		<path fill="#F2F2A2" d="M512.001,425.5c0.666-1,1.5-1.833,2.5-2.333c0,0.833-0.5,3,0,3.5c1,1,3,0.167,4,1.333
			c-3.834,1.167-0.5,3-2,6c-1-0.5-1.667-1.5-2.5-2.333c-0.5,1.5-1.167,3.167-2.5,3.833c-0.5-1.333-0.834-2.666-1.167-3.833
			c-2,0.333-4,0.167-6,0.167c1.167-1,2.833-2.5,4.333-3.167c-1-0.667-1.666-2.5-1.666-3.833c1.666,0.166,4,1.5,5.333,1.166"/>
	</g>
	<g>
		<path fill="#A7DAEA" d="M522.667,412.167c-1,2.167,1.667,2.667,2,0.833c-0.5,0-1-0.5-1.333-0.5"/>
	</g>
	<g>
		<path fill="#A7DAEA" d="M501.167,447.167c0.167,3.167,2.834,1,2.667-1c-0.667-0.167-1.167-0.167-1.667,0"/>
	</g>
	<g>
		<path fill="#A7DAEA" d="M502.167,446.167"/>
	</g>
	<g>
		<path fill="#A7DAEA" d="M487,488.667c0.333-1,1.333-2.334,2-3.334c-0.333,3-0.333,6,3,6.667c-0.667,0.333-1.667,1.667-2.667,2
			c1,1,1.334,3,2.334,3.667c-1.667-0.334-2.667,0-4-1.667c-0.667,1.333-1.667,1.667-3.334,2.667c-0.666-1.334-1.333-2-1.333-3.667
			c-1.333-0.333-2-1.333-2.667-1.667c1-0.333,1.667-1.333,2.334-1.666c-0.667-1-0.334-2.667-1-3.667c1.666,0.333,4,1.333,5.333,2"/>
	</g>
	<g>
		<path fill="#A7DAEA" d="M519.667,471.333c-10,8,13,4.667,3.666,0C523,471,518.667,472.667,519,472.667"/>
	</g>
	<g>
		<path fill="#A7DAEA" d="M517,506.333c4.333,7,5-6,0.333-0.666"/>
	</g>
	<g>
		<path fill="#A7DAEA" d="M496,554.333"/>
	</g>
	<g>
		<path fill="#A7DAEA" d="M496,554.333c0-3.333,2.667-6.666,5-9c1.333,2,0.667,4.667,1.667,6.667c1.666,2.667,4,2.333,6.666,4
			c-1.666,1.667-5.333,1.667-6,3.667c-0.666,1,0.667,5,0.667,6.666c-1.333-2-2.5-4.333-4.166-5.666C498.834,563,497,565,496,567
			c0-2.333,0-4.667,0-7c-3,0.333-5.834,1.667-8.5,1.667c1.334-2.334,4.583-3,6.916-4.334c-2.333-1-4.707-2.666-5.374-5.333
			c2.667-0.667,6.979,0.333,8.312-2"/>
	</g>
	<g>
		<path fill="#F2F2A2" d="M422.667,532.667c-1,14.666,12.666,7.333,3-2.667c-1.334,1-1,1.667-1,3.333"/>
	</g>
	<g>
		<path fill="#A7DAEA" d="M468,578c-1.667,4.333,2.667,6.667,4,2.333c0.667-3.333-4-0.666-3-1.666"/>
	</g>
	<g>
		<path fill="#A7DAEA" d="M520,566.333c-0.667,9.334,7-0.666,1.667-0.333"/>
	</g>
	<g>
		<path fill="#A7DAEA" d="M506.667,601.667"/>
	</g>
	<g>
		<path fill="#A7DAEA" d="M506,602.333c-3.333,2.334,1.333,7.334,4,5.667"/>
	</g>
	<g>
		<path fill="#A7DAEA" d="M510.333,605"/>
	</g>
	<g>
		<path fill="#A7DAEA" d="M509,603.667c-0.667-0.667-1-1.667-2.333-2c-1.334,1-0.334,0.666,0,1.666"/>
	</g>
	<g>
		<path fill="#A7DAEA" d="M502,669"/>
	</g>
	<g>
		<path fill="#F2F2A2" d="M501.667,667.333c-1-3.666,0.333-8.666,2.666-11.666C504.667,658.333,505,662,507,664
			c2.333,2.333,5,1,8,2.333c-1.333,2.334-4.667,2.667-4.667,5.334c0,2.333,5.334,2.666,3.667,6.666c-2.333-0.666-4.333-2.333-6-4
			c0.667,2.667,1,6.334-0.333,8.667c-2.334-1.667-4.334-4.333-4.334-7c-2.333,0-4.666,0.667-7,0.667
			c0.667-1.667,2.334-2.667,4-3.667c-2.666-0.333-6.333-1.667-7-4c2.667-0.333,6.667-1.333,9-1.667"/>
	</g>
	<g>
		<path fill="#A7DAEA" d="M487.333,686.667c-4.333,5.666,6.667,6.333,4.334,2c-1-2.334-3.667-1-4,0.333"/>
	</g>
	<g>
		<path fill="#A7DAEA" d="M505.333,699.333"/>
	</g>
	<g>
		<path fill="#A7DAEA" d="M505.333,699.333c-7.333,1-2.333,15,2,13.667c5-1.333,4-17.667-1.666-15"/>
	</g>
	<g>
		<path fill="#A7DAEA" d="M430.333,456.667"/>
	</g>
	<g>
		<path fill="#A7DAEA" d="M429.667,458c-2.334,3.333-2,8.667,1.666,10.667c1-2.334,2.667-11-1.333-9.667"/>
	</g>
	<g>
		<path fill="#A7DAEA" d="M395.667,500c-1,3,2.333,7.333,3.333,3.667c0.667-2.667-1.333-2.667-3.333-2
			c0,0.333-0.334,0.333-0.334,0.333"/>
	</g>
	<g>
		<path fill="#A7DAEA" d="M445,501.667c0.333,0.666,0.333,1.333,1,2c0.667-1.334,0.333-1,0-2.334c-0.333,0.334-1,0.667-0.667,0.667"
			/>
	</g>
	<g>
		<path fill="#A7DAEA" d="M523.667,728.002"/>
	</g>
	<g>
		<path fill="#A7DAEA" d="M523.333,730.002c-4,10.667,11.334-4,1,0"/>
	</g>
	<g>
		<path fill="#A7DAEA" d="M553,733.336c6.667,5.666,1.333-7.334-0.333-0.667c-0.334,0.667,0,1.667,0.333,2.333"/>
	</g>
	<g>
		<path fill="#A7DAEA" d="M400,445.25c3-4.5,2.75-0.5,4.25,0.5c0.25,0,2.5,1.5,2.75,1.75c2.25,2,4,2.5,0,5
			c1.25,1.25,2.25,2.75,2.25,4.5c-1.75,0.25-3.25-1-4.5-2c0.25,2-0.5,4-2,5.5c-1-1.75-2-3.5-2.5-5.25c-1.75,0.5-4,1-5.25-0.5
			c1.25-1.25,4-1.5,4-3.25c-0.25-0.75-4.25-3.5-5-4.5c1.75-0.25,3.75,0.25,5.5-0.25"/>
	</g>
	<g>
		<path fill="#A7DAEA" d="M413,467.75c0.25,0.75,0.75,1.25,1.5,1.5"/>
	</g>
	<g>
		<path fill="#A7DAEA" d="M415,468"/>
	</g>
	<g>
		<path fill="#A7DAEA" d="M388.75,562"/>
	</g>
	<g>
		<path fill="#A7DAEA" d="M388.25,563.25c-3,5.75,6.5,9,5.75,2.5c-0.5-2.5-3.5-4.25-5-1.75"/>
	</g>
	<g>
		<path fill="#A7DAEA" d="M472.75,528.5"/>
	</g>
	<g>
		<path fill="#A7DAEA" d="M248,384.333"/>
	</g>
	<g>
		<path fill="#A7DAEA" d="M247.667,385c-3.333,5.667,6.333,2.667,1.667,0.333"/>
	</g>
	<g>
		<path fill="#A7DAEA" d="M280.333,405.334c-0.333,1.333-0.667,2.333,0.667,3.333c0.667-0.333,1-1,1.667-2"/>
	</g>
	<g>
		<path fill="#A7DAEA" d="M282.667,405.334"/>
	</g>
	<g>
		<path fill="#A7DAEA" d="M269.028,456.351c0.199-1.136,0.163-2.418,0.03-2.895c-0.196-0.705-1.063-1.945-1.937-1.66
			c-0.806,0.263-0.913,1.867-1.021,2.539c-0.22,1.361-0.337,3.458,1.305,3.985C268.33,458.617,268.814,457.568,269.028,456.351z"/>
	</g>
	<g>
		<path fill="#A7DAEA" d="M289.833,114c-1.167,4.5,4.667,0.667,1.833-0.667c-0.5-0.167-1.333,0-1.667,0.167"/>
	</g>
	<g>
		<path fill="#A7DAEA" d="M469.25,302.25c-2.75-0.5-5.25,5.75-2.25,7.25c3.75,2,5.25-5.75,2.75-7.75"/>
	</g>
	<g>
		<path fill="#A7DAEA" d="M469.5,352.25c1.5-0.5,3.25-0.75,4.75-0.75c-0.5,2.5,2.5,6.75-2,6c0.5,1,0.5,2.5,0.75,3.75
			c-1.25-0.5-2.5-1-3.25-2c-1.25,0.75-3,0.5-4.75,0.5c0.75-0.75,1-2.25,1.75-3c-1-0.5-2-1.25-2.75-1.75c0.5,0.25,0.75,0.25,1.25,0.5
			c-0.25-1.5-0.75-3.5,0-5c1.5,1,3.25,2.5,4.25,2.5"/>
	</g>
	<g>
		<g>
			<path fill="#A7DAEA" d="M364.923,313.002c-0.477,1.479-0.555,2.977,0.153,4.393c0.777,1.556,2.663,2.079,4.258,2.105
				c1.134,0.019,2.087-0.781,2.411-1.835c0.473-1.541,0.271-2.976-0.731-4.243c-0.612-0.775-1.56-1.158-2.418-1.581
				c-1.223-0.602-2.695-0.34-3.42,0.897c-0.651,1.111-0.326,2.819,0.896,3.42c0.488,0.241,0.994,0.45,1.45,0.752
				c-0.57-0.378-0.271-0.212-0.121-0.051c-0.082-0.102-0.164-0.203-0.245-0.305c-0.151-0.413-0.186-0.494-0.105-0.243
				c-0.183-0.592-0.032-0.38-0.048-0.073c0.033-0.678-0.026-0.077-0.08,0.096c0.804-0.612,1.607-1.224,2.411-1.835
				c-0.187-0.003-0.37-0.012-0.557-0.029c0.927,0.084-0.53-0.28,0.397,0.117c-0.196-0.084-0.479-0.362,0.104,0.126
				c-0.176-0.181-0.118-0.097,0.172,0.251c-0.125-0.218-0.091-0.119,0.103,0.297c-0.075-0.184-0.111-0.622-0.012,0.199
				c-0.021-0.178-0.009-0.359,0.004-0.537c-0.057,0.762-0.029,0.254,0.012,0.064c0.048-0.223,0.118-0.441,0.188-0.659
				c0.417-1.297-0.476-2.726-1.746-3.075C366.642,310.883,365.341,311.706,364.923,313.002L364.923,313.002z"/>
		</g>
	</g>
	<g>
		<path fill="#F2F2A2" d="M480.667,414.333c-1.542,0.56-3.346,1.505-4.283,2.917c-1.054,1.587-0.013,2.864-0.241,4.725
			c-1.957-0.09-3.114-1.937-5.244-1.165c-0.383,0.139-3.631,1.46-3.714,1.668c0.548-1.373,2.471-3.586,1.466-5.068
			c-0.98-1.447-4.886-1.696-6.434-1.743c1.479-0.229,6.14-0.209,6.916-1.865c0.58-1.236-1.522-4.207-2.066-5.324
			c0.839,1.377,3.248,4.162,4.706,3.345c1.281-0.718,2.148-3.69,2.77-4.978c1.08,1.559,0.679,3.391,1.136,5.08
			c0.333,1.231,0.053,0.953,1.527,1.459C477.89,413.617,479.992,414.578,480.667,414.333z"/>
	</g>
	<g>
		<g>
			<path fill="#A7DAEA" d="M521.089,408.835c-0.036,0.244-0.083,0.479-0.143,0.719c-0.042,0.151-0.09,0.302-0.145,0.449
				c0.108-0.235,0.101-0.22-0.022,0.048c-0.271,0.582-0.618,1.131-0.938,1.688c-0.681,1.182-0.284,2.729,0.896,3.42
				c1.17,0.686,2.741,0.283,3.42-0.896c0.742-1.289,1.527-2.603,1.753-4.097c0.202-1.347-0.316-2.683-1.746-3.076
				C522.971,406.761,521.292,407.485,521.089,408.835L521.089,408.835z"/>
		</g>
	</g>
	<g>
		<g>
			<path fill="#A7DAEA" d="M511.167,386.333c-0.701-0.052-0.175-0.008,0.002,0.034c0.326,0.078,0.664,0.107,0.998,0.132
				c1.36,0.101,2.5-1.213,2.5-2.5c0-1.439-1.142-2.399-2.5-2.5c0.699,0.052,0.174,0.008-0.002-0.034
				c-0.326-0.078-0.664-0.107-0.998-0.132c-1.36-0.101-2.5,1.213-2.5,2.5C508.667,385.272,509.809,386.233,511.167,386.333
				L511.167,386.333z"/>
		</g>
	</g>
	<g>
		<g>
			<path fill="#A7DAEA" d="M415,366.75c3.225,0,3.225-5,0-5S411.775,366.75,415,366.75L415,366.75z"/>
		</g>
	</g>
	<g>
		<g>
			<path fill="#A7DAEA" d="M412.482,362.732c-0.703,0.573-1.179,1.289-1.506,2.126c-0.354,0.906-0.151,1.861,0.235,2.708
				c0.646,1.413,2.261,1.964,3.672,2.146c1.505,0.193,2.973-0.493,3.832-1.718c1.024-1.458,0.416-3.461-0.558-4.756
				c-0.409-0.545-0.81-0.961-1.493-1.149c-0.646-0.178-1.35-0.086-1.927,0.252c-1.073,0.629-1.718,2.329-0.896,3.42
				c0.156,0.208,0.302,0.422,0.43,0.65c0.109,0.193,0.282,0.645-0.082-0.24c0.035,0.084,0.062,0.172,0.086,0.26
				c0.124,0.445-0.07-0.707-0.04-0.372c0.007,0.069,0.003,0.14-0.002,0.209c0.073-0.932,0.116-0.672,0.038-0.434
				c0.271-0.829,0.286-0.611,0.152-0.399c0.455-0.72,0.429-0.515,0.25-0.34c-0.22,0.214,0.655-0.466,0.329-0.257
				c-0.181,0.116-0.572,0.257,0.39-0.148c-0.06,0.025-0.121,0.044-0.184,0.062c-0.064,0.019-0.13,0.031-0.195,0.043
				c-0.329,0.06,0.834-0.089,0.406-0.06c-0.143,0.01-0.286,0.003-0.429-0.01c-0.339-0.031,0.824,0.129,0.396,0.05
				c-0.071-0.013-0.142-0.031-0.211-0.05c-0.068-0.018-0.136-0.042-0.203-0.065c-0.312-0.11,0.734,0.331,0.357,0.15
				c-0.249-0.12-0.66-0.499,0.134,0.151c-0.048-0.04-0.091-0.083-0.134-0.129c-0.212-0.227,0.463,0.654,0.258,0.327
				c-0.204-0.326,0.263,0.69,0.162,0.399c-0.075-0.215-0.049-0.617,0.048,0.448c-0.02-0.221,0.09-0.64-0.075,0.431
				c0.01-0.068,0.032-0.134,0.054-0.199c-0.289,0.843-0.251,0.554-0.124,0.334c0.107-0.187,0.393-0.496-0.192,0.229
				c0.162-0.2,0.358-0.372,0.557-0.534c1.058-0.862,0.891-2.646,0-3.535C414.981,361.696,413.537,361.872,412.482,362.732
				L412.482,362.732z"/>
		</g>
	</g>
	<g>
		<g>
			<path fill="#A7DAEA" d="M414.5,367c3.225,0,3.225-5,0-5S411.275,367,414.5,367L414.5,367z"/>
		</g>
	</g>
	<g>
		<path fill="#A7DAEA" d="M438.595,355.693c-0.339,0.131-0.691,0.243-1.054,0.163c0.604-0.851,0.919-2.021,1.616-2.73
			c0.572-0.583,1.503-0.751,1.827-1.479c-1.238-0.237-2.471-0.448-3.688-0.802c-1.074-0.312-2.109-1.06-3.258-0.969
			c1.464,0,2.681-0.188,4.087-0.594c1.071-0.31,2.23-0.231,3.234-0.55c0.025-0.937-0.776-1.819-1.321-2.499
			c-0.236-0.295-0.861-0.761-0.965-1.12c-0.021-0.072-0.083-1.022,0.05-0.938c3.322,2.115,4.233-0.314,6.627-2.175
			c0.5,1.25,0.25,3,1,4.25c1,1.75,1.25,1,2.25,2.25c1,1,5,2.25,0.25,3c0,1.75,0.5,3.5,0.5,5.25c-0.387-0.646-2.355-3.176-3.262-2.88
			c-0.68,0.222-1.339,4.229-1.49,4.969c0.13-1.111-0.192-3.645-1.159-4.383c-1.177-0.899-3.379,0.647-4.656,1.02
			C438.992,355.532,438.796,355.616,438.595,355.693z"/>
	</g>
</g>
<g id="Layer_6">
	<g opacity="0.5">
		<radialGradient id="SVGID_27_" cx="359.1338" cy="382.9624" r="262.7197" gradientUnits="userSpaceOnUse">
			<stop  offset="0" style="stop-color:#F7F48F"/>
			<stop  offset="1" style="stop-color:#EDE4B7;stop-opacity:0"/>
		</radialGradient>
		<path fill="url(#SVGID_27_)" d="M480.506,555.097c1.294-6.521,2.825-12.975,4.44-19.247c2.279-8.849,6.532-16.877,7.901-26.034
			c3.438-23.008,4.354-45.293-4.273-67.086c-6.395-16.152-11.918-32.233-20.218-47.601c-16.027-29.673-39.927-59.647-74.172-68.161
			c-15.138-3.763-29.75-6.001-45.2-7.95c-25.774-3.251-51.751-3.06-77.47,0.61c-23.247,3.317-46.24,20.31-66.012,32.56
			c-23.871,14.79-47.935,30.161-66.605,51.333c-6.2,7.03-37.485,33.06-45.969,22.527c-3.694-4.585,1.625-23.526,3.297-28.071
			c11.698-31.791,31.933-62.142,54.5-87.726c30.146-34.177,72.715-60.589,117.277-70.248c24.705-5.354,53.854-11.759,79.048-9.777
			c56.19,4.42,106.681,29.142,150.378,63.459c17.773,13.958,33.632,30.102,45.16,49.668c15.203,25.804,24.633,55.932,23.037,86.087
			c-1.298,24.517-2.278,49.386-6.432,73.616c-3.271,19.082-10.518,44.997-22.401,60.291c-14.703,18.922-32.934,46.715-57.435,53.322
			c-3.831,1.033-2.626-30.378-2.527-32.784C477.222,574.38,478.608,564.665,480.506,555.097z"/>
	</g>
	<g opacity="0.5">
		<g>
			<radialGradient id="SVGID_28_" cx="550.5" cy="359.5" r="1.2748" gradientUnits="userSpaceOnUse">
				<stop  offset="0" style="stop-color:#F7F48F"/>
				<stop  offset="1" style="stop-color:#EDE4B7;stop-opacity:0"/>
			</radialGradient>
			<path fill="url(#SVGID_28_)" d="M553,361c-0.043-0.807-0.273-1.447-0.609-2.176c-0.104-0.225-0.22-0.444-0.328-0.667
				c-0.1-0.215-0.102-0.222-0.008-0.022c-0.045-0.12-0.079-0.598-0.055-0.135c-0.059-1.088-0.865-2-2-2c-1.046,0-2.059,0.911-2,2
				c0.043,0.807,0.273,1.447,0.609,2.176c0.104,0.225,0.22,0.444,0.328,0.667c0.1,0.215,0.102,0.222,0.008,0.022
				c0.045,0.12,0.079,0.598,0.055,0.135c0.059,1.088,0.865,2,2,2C552.046,363,553.059,362.089,553,361L553,361z"/>
		</g>
	</g>
</g>
</svg>
