<?xml version="1.0" encoding="utf-8"?>
<!-- Generator: Adobe Illustrator 16.0.0, SVG Export Plug-In . SVG Version: 6.00 Build 0)  -->
<!DOCTYPE svg PUBLIC "-//W3C//DTD SVG 1.1//EN" "http://www.w3.org/Graphics/SVG/1.1/DTD/svg11.dtd">
<svg version="1.1" xmlns="http://www.w3.org/2000/svg" xmlns:xlink="http://www.w3.org/1999/xlink" x="0px" y="0px" width="900px"
	 height="500px" viewBox="0 0 900 500" enable-background="new 0 0 900 500" xml:space="preserve">
<g id="Layer_1">
	<rect x="-4.5" y="-164.5" fill="#111935" stroke="#231F20" stroke-miterlimit="10" width="920" height="815"/>
</g>
<g id="Layer_2">
	<linearGradient id="SVGID_1_" gradientUnits="userSpaceOnUse" x1="449.9346" y1="-168.7603" x2="455.9341" y2="651.6986">
		<stop  offset="0" style="stop-color:#111935"/>
		<stop  offset="1" style="stop-color:#11101C"/>
	</linearGradient>
	<rect x="-16.5" y="-149.5" fill="url(#SVGID_1_)" stroke="#231F20" stroke-miterlimit="10" width="939" height="800"/>
</g>
<g id="Layer_3" display="none">
	<g display="inline">
		<g>
			<path fill="#2E4E8E" d="M901.567-283.389c3.225,0,3.225-5,0-5S898.343-283.389,901.567-283.389L901.567-283.389z"/>
		</g>
	</g>
	<g display="inline" opacity="0.4">
		<path fill="#2E4E8E" d="M829.571-279.889c-7.5,6-1.5,17.999-6,23.999c-8.999,12-4.499,1.5-17.999,6
			c-23.998,9-58.497,41.998-85.495,34.498c-35.999-9-56.997-40.498-89.996-7.5c-7.499,7.5-3,13.499-14.999,17.999
			c-6,3-20.999-3-26.999-4.5c-17.999-3-32.998-7.5-50.997-10.499c-14.999-3-32.998-4.5-47.998,1.5
			c-16.499,6-25.498,23.999-40.498,29.999c-23.999,9-56.997-9-82.496-10.5c-4.5,37.499-79.496,18-106.495,23.999
			c-41.998,10.5-104.995,22.499-128.993,61.497c7.5,0,16.499-1.5,23.999-1.5c-1.5,20.999,13.5,25.499,23.999,35.998
			C196.603-62.4,201.103-54.9,228.102-57.9c29.999-4.5,49.498-19.499,79.496-10.5c20.999,7.5,38.998,15,61.497,16.499
			c49.498,1.5,82.496-28.499,125.994-43.498c17.999-6,37.498-12,56.997-12c17.999,0,35.998,10.5,53.997,12
			c26.999,1.5,98.995-37.498,95.996,14.999c-3,55.498-70.497,16.5-94.496,35.999c-14.999,11.999-10.499,38.998-26.998,50.997
			c-14.999,10.5-35.998,7.5-52.498,12c-22.498,4.5-43.497,12-67.496,15c-23.999,3-49.498-6-71.997-3
			c-41.998,4.5-89.996,40.498-122.994,62.997c-23.999,16.5-41.998,31.499-56.997,56.997c-10.5,15-12,41.998-22.499,55.497
			c-26.999,31.499-83.996,20.999-112.494,58.497c-22.499,29.999-32.999,85.496-13.5,119.994
			c19.499,37.498,50.998,77.996,86.996,38.998c13.5-13.499,23.999-37.498,38.998-17.999c12,16.499,3,31.499,23.999,46.498
			c107.994,79.496,217.489-100.495,317.983-106.495c74.997-4.499,70.497,76.496,130.494,92.995
			c19.499,4.5,32.998-5.999,52.497-4.499c25.499,1.5,31.499,31.498,58.497,34.498c38.998,4.5,79.496-32.998,116.994-35.998
			c22.499-1.5,100.495,62.997,82.496-1.5c-7.5-28.499-71.996-97.495-101.995-103.495c-26.999-5.999-31.498,12-50.997-13.499
			c-15-19.499-19.499-40.498-43.498-52.497c-41.998-17.999-79.496-10.5-112.494,16.499c-35.998,28.498-92.996,40.498-91.496-23.999
			c1.5-52.497,55.498-23.999,89.996-32.998c44.998-10.5,44.998-71.997,85.495-95.995c35.999-21,88.496-22.499,109.495-65.997
			c7.499-17.999,10.499-41.998,10.499-61.497c0-26.999-4.499-34.498-23.999-47.998c-16.499-12-29.998-14.999-20.998-37.498
			c7.499-17.999,32.998-22.499,37.498-40.498c11.999-49.498-83.996-14.999-104.995-10.5c-46.498,9-89.995,6-136.493,4.5
			c-17.999,0-46.498,1.5-37.495-24.007c6.584-16.436,36.277-38.164,53.782-34.797c12.224,2.352,24.98,13.804,37.74,17.354
			c13.583,3.778,27.669,4.818,41.712,3.952c19.151-1.181,31.188-11.06,46.711-21.077c16.984-10.96,37.485-16.225,57.48-11.839
			c17.272,3.789,33.416,19.587,52.094,17.989c13.953-1.194,33.982-18.507,43.498-28.576c13.784-14.585,6.157-27.791,8.927-44.616
			c3.817-23.189,32.95-26.255,51.146-34.918c16.958-8.074,22.387-21.739,2.632-33.027c-25.91-14.805-41.624,3.274-51.119,22.528
			c-4.383,8.888-7.705,15.597-17.195,19.608C883.521-276.75,848.769-301.83,829.571-279.889z"/>
	</g>
</g>
<g id="Layer_4">
	<ellipse fill="#2F648C" cx="700.862" cy="248.665" rx="1.557" ry="1.634"/>
	<ellipse fill="#2F648C" cx="238.167" cy="191.833" rx="1.583" ry="1.781"/>
	<ellipse fill="#2F648C" cx="56.433" cy="260.585" rx="1.084" ry="1.138"/>
	<ellipse fill="#2F648C" cx="391.125" cy="465.875" rx="1.101" ry="1.052"/>
	<ellipse fill="#2F648C" cx="282.25" cy="231.5" rx="1" ry="0.5"/>
	<circle fill="#2F648C" cx="182" cy="283.5" r="0.75"/>
	<ellipse fill="#2F648C" cx="422.625" cy="345.25" rx="0.875" ry="0.75"/>
	<ellipse fill="#2F648C" cx="317.75" cy="310.625" rx="0.5" ry="0.625"/>
	<ellipse fill="#2F648C" cx="209.959" cy="63.042" rx="1.638" ry="1.563"/>
	<circle fill="#2F648C" cx="51.129" cy="117.872" r="0.039"/>
	<ellipse fill="#2F648C" cx="418.385" cy="221.616" rx="1.226" ry="1.17"/>
	<ellipse fill="#2F648C" cx="196.75" cy="98.625" rx="0.5" ry="0.625"/>
	<ellipse fill="#2F648C" cx="658.25" cy="362.5" rx="1" ry="0.5"/>
	<circle fill="#2F648C" cx="600" cy="432.5" r="0.75"/>
	<ellipse fill="#2F648C" cx="735.75" cy="459.625" rx="0.5" ry="0.625"/>
	<ellipse fill="#2F648C" cx="614.75" cy="247.625" rx="0.5" ry="0.625"/>
	
		<ellipse transform="matrix(0.0112 -0.9999 0.9999 0.0112 658.9669 865.944)" fill="#2F648C" cx="767.345" cy="99.768" rx="1" ry="0.5"/>
	<circle fill="#2F648C" cx="836.689" cy="158.796" r="0.75"/>
	
		<ellipse transform="matrix(0.0107 -0.9999 0.9999 0.0107 832.6785 888.3881)" fill="#2F648C" cx="865.331" cy="23.358" rx="0.5" ry="0.625"/>
	
		<ellipse transform="matrix(0.0107 -0.9999 0.9999 0.0107 503.016 792.4075)" fill="#2F648C" cx="651.991" cy="141.979" rx="0.5" ry="0.625"/>
	<ellipse fill="#2F648C" cx="267.25" cy="49.5" rx="1" ry="0.5"/>
	<ellipse fill="#2F648C" cx="344.75" cy="146.625" rx="0.5" ry="0.625"/>
	<ellipse fill="#2F648C" cx="482.25" cy="214.5" rx="1" ry="0.5"/>
	<circle fill="#2F648C" cx="424" cy="284.5" r="0.75"/>
	<ellipse fill="#2F648C" cx="559.75" cy="311.625" rx="0.5" ry="0.625"/>
	<ellipse fill="#2F648C" cx="29.75" cy="163.625" rx="0.5" ry="0.625"/>
	<ellipse fill="#2F648C" cx="100.25" cy="114.5" rx="1" ry="0.5"/>
	<ellipse fill="#2F648C" cx="639.75" cy="189.625" rx="0.5" ry="0.625"/>
	<ellipse fill="#2F648C" cx="710.25" cy="140.5" rx="1" ry="0.5"/>
	<circle fill="#2F648C" cx="646" cy="426.5" r="0.75"/>
	<circle fill="#2F648C" cx="680" cy="447.5" r="0.75"/>
	<ellipse fill="#2F648C" cx="542.25" cy="66.5" rx="1" ry="0.5"/>
	<circle fill="#2F648C" cx="484" cy="136.5" r="0.75"/>
	<circle fill="#2F648C" cx="530" cy="130.5" r="0.75"/>
	<circle fill="#2F648C" cx="564" cy="151.5" r="0.75"/>
	<ellipse fill="#2F648C" cx="92.25" cy="450.5" rx="1" ry="0.5"/>
	<circle fill="#2F648C" cx="160" cy="473.5" r="0.75"/>
	<circle fill="#2F648C" cx="240" cy="488.5" r="0.75"/>
	<ellipse fill="#2F648C" cx="870.25" cy="173.5" rx="1" ry="0.5"/>
	<circle fill="#2F648C" cx="812" cy="243.5" r="0.75"/>
	<circle fill="#2F648C" cx="858" cy="237.5" r="0.75"/>
	<circle fill="#2F648C" cx="892" cy="258.5" r="0.75"/>
	<ellipse fill="#2F648C" cx="168.25" cy="72.5" rx="1" ry="0.5"/>
	<circle fill="#2F648C" cx="110" cy="142.5" r="0.75"/>
	<circle fill="#2F648C" cx="156" cy="136.5" r="0.75"/>
	<circle fill="#2F648C" cx="190" cy="157.5" r="0.75"/>
	<ellipse fill="#2F648C" cx="127.25" cy="226.5" rx="1" ry="0.5"/>
	<circle fill="#2F648C" cx="69" cy="296.5" r="0.75"/>
	<circle fill="#2F648C" cx="115" cy="290.5" r="0.75"/>
	<circle fill="#2F648C" cx="149" cy="311.5" r="0.75"/>
	<ellipse fill="#2F648C" cx="351.75" cy="231.625" rx="0.5" ry="0.625"/>
	<ellipse fill="#2F648C" cx="305.75" cy="110.625" rx="0.5" ry="0.625"/>
	<ellipse fill="#2F648C" cx="509.75" cy="307.625" rx="0.5" ry="0.625"/>
	<ellipse fill="#2F648C" cx="455.75" cy="89.625" rx="0.5" ry="0.625"/>
	<circle fill="#2F648C" cx="335" cy="77.5" r="0.75"/>
	<circle fill="#2F648C" cx="381" cy="71.5" r="0.75"/>
	<circle fill="#2F648C" cx="415" cy="92.5" r="0.75"/>
	<ellipse fill="#2F648C" cx="306.75" cy="30.625" rx="0.5" ry="0.625"/>
	<circle fill="#2F648C" cx="484" cy="419.5" r="0.75"/>
	<circle fill="#2F648C" cx="530" cy="413.5" r="0.75"/>
	<circle fill="#2F648C" cx="564" cy="434.5" r="0.75"/>
	<ellipse fill="#2F648C" cx="171.25" cy="232.5" rx="1" ry="0.5"/>
	<ellipse fill="#2F648C" cx="639.25" cy="41.5" rx="1" ry="0.5"/>
	<ellipse fill="#2F648C" cx="736.25" cy="64.5" rx="1" ry="0.5"/>
	<ellipse fill="#2F648C" cx="621.25" cy="97.5" rx="1" ry="0.5"/>
	<ellipse fill="#2F648C" cx="126.625" cy="392.25" rx="0.875" ry="0.75"/>
	<circle fill="#2F648C" cx="239" cy="336.5" r="0.75"/>
	<ellipse fill="#2F648C" cx="207.75" cy="384.625" rx="0.5" ry="0.625"/>
	<ellipse fill="#2F648C" cx="328.625" cy="432.25" rx="0.875" ry="0.75"/>
	<circle fill="#2F648C" cx="330" cy="371.5" r="0.75"/>
	<ellipse fill="#2F648C" cx="361.75" cy="459.625" rx="0.5" ry="0.625"/>
	<circle fill="#2F648C" cx="377.145" cy="423.918" r="0.75"/>
	<ellipse fill="#2F648C" cx="464.963" cy="391.331" rx="0.626" ry="0.5"/>
	
		<ellipse transform="matrix(0.0167 -0.9999 0.9999 0.0167 54.1539 1031.3785)" fill="#2F648C" cx="551.472" cy="488.155" rx="0.875" ry="0.75"/>
	<circle fill="#2F648C" cx="490.753" cy="485.756" r="0.75"/>
	
		<ellipse transform="matrix(0.0166 -0.9999 0.9999 0.0166 114.3499 1027.2562)" fill="#2F648C" cx="579.401" cy="455.496" rx="0.5" ry="0.626"/>
	<ellipse fill="#2F648C" cx="258.625" cy="285.25" rx="0.875" ry="0.75"/>
	<ellipse fill="#2F648C" cx="323.75" cy="247.625" rx="0.5" ry="0.625"/>
	<ellipse fill="#2F648C" cx="332.963" cy="266.331" rx="0.626" ry="0.5"/>
	<ellipse fill="#2F648C" cx="351.625" cy="340.25" rx="0.875" ry="0.75"/>
	<ellipse fill="#2F648C" cx="384.75" cy="367.625" rx="0.5" ry="0.625"/>
	
		<ellipse transform="matrix(0.5593 -0.8289 0.8289 0.5593 -21.0035 886.0831)" fill="#2F648C" cx="822.903" cy="462.796" rx="0.875" ry="0.75"/>
	
		<ellipse transform="matrix(0.5599 -0.8286 0.8286 0.5599 6.9279 914.3315)" fill="#2F648C" cx="864.123" cy="450.645" rx="0.5" ry="0.625"/>
	
		<ellipse transform="matrix(-0.834 -0.5518 0.5518 -0.834 1372.481 1319.8518)" fill="#2F648C" cx="884.782" cy="453.467" rx="0.5" ry="0.625"/>
	<ellipse fill="#2F648C" cx="538.625" cy="252.25" rx="0.875" ry="0.75"/>
	<ellipse fill="#2F648C" cx="580.963" cy="298.331" rx="0.626" ry="0.5"/>
	<ellipse fill="#2F648C" cx="414.385" cy="167.615" rx="1.226" ry="1.17"/>
	<ellipse fill="#2F648C" cx="125.385" cy="72.615" rx="1.226" ry="1.17"/>
	<ellipse fill="#2F648C" cx="51.385" cy="100.615" rx="1.226" ry="1.17"/>
	<ellipse fill="#2F648C" cx="601.167" cy="383.834" rx="1.583" ry="1.781"/>
	<path fill="#2F648C" d="M723.902,236.479c-0.189,0.004-0.344,0.231-0.341,0.508c0.001,0.276,0.157,0.496,0.347,0.492
		c0.19-0.004,0.344-0.23,0.342-0.507S724.092,236.477,723.902,236.479z"/>
	<ellipse fill="#2F648C" cx="701.801" cy="173.5" rx="0.551" ry="0.5"/>
	<path fill="#2F648C" d="M769.902,190.479c-0.189,0.004-0.344,0.231-0.341,0.508c0.001,0.276,0.157,0.496,0.347,0.492
		c0.19-0.004,0.344-0.23,0.342-0.507S770.092,190.477,769.902,190.479z"/>
	<path fill="#2F648C" d="M858.902,340.479c-0.189,0.004-0.344,0.231-0.341,0.508c0.001,0.276,0.157,0.496,0.347,0.492
		c0.19-0.004,0.344-0.23,0.342-0.507S859.092,340.477,858.902,340.479z"/>
	<path fill="#2F648C" d="M723.902,399.479c-0.189,0.004-0.344,0.231-0.341,0.508c0.001,0.276,0.157,0.496,0.347,0.492
		c0.19-0.004,0.344-0.23,0.342-0.507S724.092,399.477,723.902,399.479z"/>
	<path fill="#2F648C" d="M782.902,352.479c-0.189,0.004-0.344,0.231-0.341,0.508c0.001,0.276,0.157,0.496,0.347,0.492
		c0.19-0.004,0.344-0.23,0.342-0.507S783.092,352.477,782.902,352.479z"/>
	<g>
		<g>
			<radialGradient id="SVGID_2_" cx="45" cy="268" r="2.4593" gradientUnits="userSpaceOnUse">
				<stop  offset="0" style="stop-color:#0A2E66"/>
				<stop  offset="1" style="stop-color:#0A2E66;stop-opacity:0"/>
			</radialGradient>
			<path fill="url(#SVGID_2_)" d="M45,270.5c3.224,0,3.224-5,0-5S41.776,270.5,45,270.5L45,270.5z"/>
		</g>
	</g>
	<g>
		<g>
			<radialGradient id="SVGID_3_" cx="45" cy="267" r="0.7906" gradientUnits="userSpaceOnUse">
				<stop  offset="0" style="stop-color:#0A2E66"/>
				<stop  offset="1" style="stop-color:#0A2E66;stop-opacity:0"/>
			</radialGradient>
			<path fill="url(#SVGID_3_)" d="M47.5,268c0-0.667,0-1.333,0-2c0-1.363-1.137-2.5-2.5-2.5s-2.5,1.137-2.5,2.5c0,0.667,0,1.333,0,2
				c0,1.363,1.137,2.5,2.5,2.5S47.5,269.363,47.5,268L47.5,268z"/>
		</g>
	</g>
	<ellipse fill="#2F648C" cx="69.385" cy="167.615" rx="1.226" ry="1.17"/>
	<ellipse fill="#2F648C" cx="167.167" cy="402.834" rx="1.583" ry="1.781"/>
	<ellipse fill="#2F648C" cx="85.167" cy="62.834" rx="1.583" ry="1.781"/>
	<ellipse fill="#2F648C" cx="266.167" cy="449.834" rx="1.583" ry="1.781"/>
	<ellipse fill="#2F648C" cx="746.167" cy="461.834" rx="1.583" ry="1.781"/>
	<ellipse fill="#2F648C" cx="456.167" cy="321.834" rx="1.583" ry="1.781"/>
	<ellipse fill="#2F648C" cx="481.167" cy="97.834" rx="1.583" ry="1.781"/>
	<ellipse fill="#2F648C" cx="824.167" cy="109.834" rx="1.583" ry="1.781"/>
	<ellipse fill="#2F648C" cx="809.167" cy="335.834" rx="1.583" ry="1.781"/>
	<ellipse fill="#2F648C" cx="52.167" cy="339.834" rx="1.583" ry="1.781"/>
	<ellipse fill="#2F648C" cx="729.963" cy="289.331" rx="0.626" ry="0.5"/>
	<ellipse fill="#2F648C" cx="752.963" cy="362.331" rx="0.626" ry="0.5"/>
	<ellipse fill="#2F648C" cx="358.963" cy="294.331" rx="0.626" ry="0.5"/>
	<ellipse fill="#2F648C" cx="678.963" cy="320.331" rx="0.626" ry="0.5"/>
</g>
</svg>
