<?xml version="1.0" encoding="utf-8"?>
<!-- Generator: Adobe Illustrator 16.0.0, SVG Export Plug-In . SVG Version: 6.00 Build 0)  -->
<!DOCTYPE svg PUBLIC "-//W3C//DTD SVG 1.1//EN" "http://www.w3.org/Graphics/SVG/1.1/DTD/svg11.dtd">
<svg version="1.1" xmlns="http://www.w3.org/2000/svg" xmlns:xlink="http://www.w3.org/1999/xlink" x="0px" y="0px" width="200px"
	 height="200px" viewBox="0 0 200 200" enable-background="new 0 0 200 200" xml:space="preserve">
<g id="Layer_1">
	<g display="none">
		<g display="inline">
			<path fill="#231F20" d="M89,134.834c3.224,0,3.224-5,0-5S85.776,134.834,89,134.834L89,134.834z"/>
		</g>
	</g>
	<g display="none">
		<g display="inline">
			<path fill="#231F20" d="M89.434,129.566c-0.323-0.3-0.684-0.56-1.048-0.808c-0.123-0.084-0.248-0.166-0.372-0.25
				c-0.433-0.295,0.434,0.38,0.086,0.058c-0.997-0.927-2.546-0.989-3.535,0c-0.937,0.937-0.999,2.607,0,3.535
				c0.322,0.3,0.684,0.561,1.048,0.809c0.123,0.084,0.248,0.165,0.372,0.249c0.433,0.295-0.434-0.379-0.086-0.058
				c0.999,0.926,2.545,0.99,3.535,0C90.37,132.166,90.434,130.492,89.434,129.566L89.434,129.566z"/>
		</g>
	</g>
	<g display="none">
		<g display="inline">
			<path fill="#231F20" d="M81.434,121.9c-4.508-4.359-12.104-8.953-12.268-15.899c-1.422,0.589-2.845,1.179-4.268,1.768
				c9.17,8.188,17.227,18.126,23.276,28.827c1.14-1.14,2.28-2.28,3.42-3.42c-9.81-6.826-17.276-15.631-24.54-24.998
				c-1.548-1.996-3.329-3.953-4.179-6.375c-0.879-2.503,0.869-5.862,1.7-8.166c2.279-6.321,5.496-12.313,8.39-18.366
				c1.809-3.783,3.096-7.827,4.601-11.735c1.38-3.585,3.225-9.116,6.591-11.397c3.847-2.607,11.655,6.317,13.795,8.518
				c4.902,5.043,9.24,10.643,13.46,16.257c3.847,5.116,8.347,9.664,12.178,14.75c5.561,7.382-5.441,17.101-9.416,23.076
				c-3.172,4.768-6.181,9.752-8.888,14.796c-2.857,5.324-3.307,11.192-5.779,16.537c0.941-0.383,1.882-0.766,2.824-1.149
				c-3.646-1.415-5.992-5.616-8.564-8.356c-3.48-3.708-6.764-7.889-8.942-12.494c-1.439,0.841-2.878,1.683-4.317,2.523
				c3.554,6.059,8.91,10.821,12.934,16.558c2.403,3.426,7.397,5.315,10.327,1.242c1.558-2.167,2.299-4.723,3.39-7.133
				c1.974-4.357,4.767-8.425,7.334-12.444c4.378-6.854,8.923-13.782,12.041-21.315c4.925-11.896-7.136-23.391-14.335-31.266
				c-5.537-6.058-10.613-12.772-15.423-19.413c-3.403-4.699-5.544-11.832-11.18-14.315c-1.479-0.651-3.173-0.182-3.672,1.494
				c-4.576,15.36-12.108,29.33-18.09,44.114c-2.364,5.842-6.393,13.081-5.667,19.551c0.558,4.973,6.449,9.347,9.674,12.65
				c7.456,7.639,13.461,16.608,20.986,24.191c3.739,3.767,12.001,9.156,13.584,0.489c0.575-3.152-4.243-4.498-4.822-1.33
				c-0.306,1.677,0.156,1.411-1.198,0.661c-1.259-0.697-2.325-1.74-3.369-2.714c-2.131-1.988-4.04-4.221-5.932-6.432
				c-6.057-7.078-11.776-14.508-18.385-21.087c-1.773-1.766-3.484-3.567-4.887-5.646c-1.831-2.715-0.013-6.311,1.008-8.987
				c2.518-6.605,4.988-13.2,8.019-19.593c5.324-11.228,10.344-22.605,13.898-34.538c-1.224,0.498-2.448,0.996-3.672,1.494
				c4.384,1.932,6.736,8.727,9.386,12.521c3.863,5.53,8.192,10.855,12.442,16.088c6.255,7.703,15.438,14.692,17.621,24.838
				c1.26,5.856-4.111,12.677-6.992,17.358c-3.687,5.99-7.564,11.88-11.04,17.996c-1.034,1.819-1.926,3.675-2.712,5.609
				c-0.531,1.31-1.068,2.59-1.748,3.83c-1.096,2.003-3.401-2.086-3.697-2.533c-3.418-5.17-8.354-9.088-11.507-14.462
				c-1.654-2.82-5.677-0.352-4.317,2.523c2.402,5.08,6.137,9.239,9.725,13.506c3.112,3.701,6.14,7.846,10.77,9.644
				c0.961,0.372,2.393-0.217,2.823-1.149c1.191-2.575,1.773-5.181,2.366-7.949c0.768-3.588,2.511-6.906,4.232-10.113
				c3.083-5.746,6.644-11.471,10.513-16.723c5.441-7.387,13.056-15.583,6.972-24.671c-2.353-3.515-5.736-6.171-8.278-9.522
				c-2.064-2.721-4.074-5.481-6.147-8.195c-5.175-6.773-10.582-13.552-17.078-19.116c-3.917-3.354-10.114-7.641-15.229-4.174
				c-3.534,2.395-5.493,7.103-7.116,10.851c-2.346,5.418-4.104,11.04-6.66,16.371c-4.433,9.248-13.854,22.443-6.953,32.364
				c7.56,10.868,16.521,20.981,27.234,28.807c0.463,0.322,0.927,0.645,1.39,0.967c2.145,1.493,4.587-1.356,3.42-3.42
				c-6.237-11.034-14.605-21.399-24.058-29.839c-1.559-1.392-4.322-0.524-4.268,1.768c0.207,8.781,8.009,13.901,13.732,19.435
				C80.216,127.677,83.756,124.145,81.434,121.9L81.434,121.9z"/>
		</g>
	</g>
	<g display="none">
		<g display="inline">
			<path fill="#231F20" d="M99.75,60.5c3.225,0,3.225-5,0-5C96.526,55.5,96.526,60.5,99.75,60.5L99.75,60.5z"/>
		</g>
	</g>
	<g>
		<g>
			<path fill="#1C1C28" d="M99.085,60.411c5.598,1.55,10.918,6.111,16.102,8.756c6.116,3.121,12.654,5.35,18.997,7.955
				c6.47,2.658,12.889,5.439,19.355,8.103c5.182,2.133,13.154,3.262,16.849,7.824c-0.215-0.811-0.429-1.622-0.644-2.432
				c-0.879,3.364-9.054,6.619-12.257,8.225c-7.211,3.615-14.523,6.974-21.656,10.75c-6.272,3.32-12.721,6.149-19.116,9.203
				c-2.398,1.145-4.798,2.517-6.835,4.238c-2.355,1.99-4.015,5.568-6.643,7.059c-2.804,1.589-0.285,5.909,2.523,4.316
				c1.965-1.113,3.133-2.547,4.379-4.415c2.166-3.247,5.707-5.16,9.099-6.881c6.858-3.479,13.933-6.459,20.744-10.065
				c7.287-3.857,14.803-7.225,22.149-10.959c3.633-1.847,11.163-5.278,12.333-9.757c0.977-3.737-4.991-6.39-7.644-7.492
				c-7.83-3.253-15.853-6.041-23.683-9.347c-7.932-3.348-16.117-6.234-23.905-9.896c-6.257-2.942-12.168-8.166-18.82-10.008
				C97.302,54.727,95.982,59.551,99.085,60.411L99.085,60.411z"/>
		</g>
	</g>
	<g>
		<g>
			<path fill="#1C1C28" d="M70.232,60.232C60.759,71.401,50.184,81.111,38.382,89.77c-4.524,3.319-9.463,6.397-13.813,9.906
				c-2.365,1.907-3.281,4.752-1.146,7.258c4.649,5.458,13.676,7.568,20.128,10.167c7.412,2.984,15.205,4.955,22.739,7.596
				c7.365,2.581,14.122,6.452,21.296,9.464c2.972,1.247,4.256-3.594,1.329-4.822c-5.482-2.301-10.667-5.225-16.176-7.479
				c-6.25-2.559-12.709-4.483-19.139-6.529c-7.808-2.484-16.05-5.418-23.273-9.354c-0.26-0.142-3.172-1.945-2.984-2.15
				c1.056-1.154,2.867-1.813,4.17-2.668c5.376-3.524,10.571-7.781,15.652-11.734c9.782-7.611,18.59-16.208,26.604-25.656
				C75.84,61.325,72.321,57.77,70.232,60.232L70.232,60.232z"/>
		</g>
	</g>
	<g>
		<g>
			<path fill="#1C1C28" d="M68.591,122.262c4.792,10.684,9.957,21.183,15.538,31.478c2.644,4.876,5.417,9.68,8.259,14.442
				c2.558,4.287,4.459,8.849,7.844,12.586c1.115,1.232,3.105,0.801,3.926-0.506c2.812-4.479,3.693-9.842,4.711-14.947
				c1.324-6.642,3.776-13.018,6.159-19.34c2.053-5.448,4.151-10.854,6.521-16.169c1.319-2.961,3.601-6.869,2.862-10.221
				c-0.694-3.147-5.515-1.813-4.822,1.33c0.511,2.314-2.667,7.08-3.624,9.166c-2.173,4.74-3.901,9.693-5.758,14.564
				c-2.242,5.881-4.573,11.873-5.895,18.038c-1.088,5.072-1.661,10.578-4.471,15.055c1.309-0.169,2.618-0.337,3.926-0.506
				c-3.43-3.788-5.405-8.798-8.008-13.16c-2.843-4.764-5.551-9.607-8.195-14.484c-5.284-9.747-10.119-19.734-14.656-29.85
				C71.591,116.801,67.283,119.346,68.591,122.262L68.591,122.262z"/>
		</g>
	</g>
	<g display="none">
		<g display="inline">
			<path fill="#231F20" d="M116.5,69c3.225,0,3.225-5,0-5S113.275,69,116.5,69L116.5,69z"/>
		</g>
	</g>
	<g>
		<path fill="#1C1C28" d="M79.75,32c2.5-6.5,5.75-16.25,11-21c5.5,7.5,11.25,14.75,16,23c6.75,11.25,13.5,22.25,20.5,33.25
			c4.75,7,7.5,14,10.5,22.25c2,5.5,3,6.75-0.25,12c-5,8-9.5,16.5-13.75,25c-3.75,7.75-6.25,15.25-9.5,23.25
			c-4,9.75-7.5,20.25-14,28.5c-3.25-1.5-3.75-5.5-5.25-8.5c-2.5-4.75-5.5-9.25-8.25-14c-5.75-10-11.5-20.5-17-30.75
			c-3.75-7-8.75-12.5-11.5-20c-2.5-6.25-6-9-4.5-16c0.728-4.002,1.868-7.998,3.708-11.639c0.927-1.833,2.208-3.286,3.316-4.976
			c1.105-1.686,1.975-3.662,2.939-5.458c4.666-8.681,8.717-17.672,12.583-26.732C77.457,37.473,78.688,34.762,79.75,32z"/>
	</g>
	<g>
		<path fill="#1C1C28" d="M69.5,63c-11,9.5-22.25,19-32.75,28.75c-3.75,3.5-12,9.5-14,14.25c15,6.5,29.5,15.25,44.75,21.5
			c8,3.25,15.75,5.25,24,7.25c2.5,0.5,5.25,2.5,7.75,2.25s7.25-2.75,9.5-4c11-5.25,21.25-12,31.5-18.5c11-6.75,23-13,31.5-22.25
			c-8-3.75-15-9.5-23.25-13.5C134.25,72,119,69.5,105.25,62.5c-6-3-15.75-9-22.75-8.5s-13,9.75-17.75,14C57,75,49.25,82,41.5,88.75
			c-3.25,3-12.75,9.25-13.5,13.75"/>
	</g>
	<polygon fill="#ABD4D8" points="-37.75,88.25 -67.963,76.58 -72.963,44.58 -47.75,24.25 -17.537,35.92 -12.537,67.92 	"/>
	<path fill="#ABD4D8" d="M62.75,72.75c0,0,22.25-49.5,28-61.75c0,0,32.836,50.5,37.293,59c0,0,42.457,18.75,46.707,21
		c0,0-39.082,26.998-49.802,33.117c0,0-21.198,55.633-22.448,57.633c0,0-27.362-48.014-30.056-52.382
		c0,0-52.194-28.118-53.194-29.368C19.25,100,55.5,76.75,62.75,72.75z"/>
	<polygon fill="none" stroke="#1C1C28" stroke-miterlimit="10" points="-31.333,61.895 -98.366,74 -142.366,22 -119.333,-42.105 
		-52.3,-54.21 -8.3,-2.21 	"/>
</g>
<g id="Layer_2">
	<path fill="#B0F4EF" d="M66.75,74l30.5,12.25c0,0-4.688-71.865-5.969-74.433C91.281,11.817,66,70.75,66.75,74z"/>
	<path fill="#B0F4EF" d="M98.333,86.25l29.427-15.188c0,0,43.577,18.435,46.325,19.603C174.086,90.666,117.5,89.167,98.333,86.25z"
		/>
	<path fill="#B0F4EF" d="M97.25,87.663c0,0,26.813,34.908,27.698,36.454L102.5,181.75C102.5,181.75,93.5,100.663,97.25,87.663z"/>
	<path fill="#B0F4EF" d="M72.444,129.368c0,0,24.369-40.67,24.556-42.372c0,0-76.167,12.507-77.75,13.003
		C19.25,100,67.221,125.406,72.444,129.368z"/>
	<polygon fill="#B0F4EF" points="22.75,-40.5 -6.767,-16.796 -42.054,-30.506 -47.824,-67.921 -18.307,-91.625 16.98,-77.915 	"/>
	<polygon fill="#EFF2B1" points="56.451,-39.5 14.137,-27.211 -17.663,-57.711 -7.148,-100.5 35.165,-112.789 66.964,-82.289 	"/>
</g>
</svg>
